<svg xmlns="http://www.w3.org/2000/svg" xmlns:xlink="http://www.w3.org/1999/xlink" width="507.128" height="613.477" viewBox="0 0 507.128 613.477">
  <defs>
    <clipPath id="clip-path">
      <rect id="Retângulo_80699" data-name="Retângulo 80699" width="496.647" height="604.902" fill="none"/>
    </clipPath>
  </defs>
  <g id="Grupo_19123" data-name="Grupo 19123" transform="matrix(1, -0.017, 0.017, 1, 0, 8.668)" style="mix-blend-mode: overlay;isolation: isolate">
    <g id="Grupo_19121" data-name="Grupo 19121" transform="translate(0 0)" clip-path="url(#clip-path)">
      <path id="Caminho_377" data-name="Caminho 377" d="M247.667,595.84l-.219-.153a25.943,25.943,0,0,1-3.912-3.375l-.1-.131c-6.6-13.2-8.514-28.817-10.059-41.352l-.208-1.654c-.362-2.991-.734-5.972-1.14-8.93.614-23.262-17.98-40.716-55.278-51.958a28.3,28.3,0,0,0-7.878,3.046c-5.424,3.024-10.311,7.648-15.022,12.118-4.109,3.9-8.349,7.922-12.951,10.88-1.293,1.227-4.722,1.205-5.972-.044-8.722-8.733-14.365-18.956-18.725-27.82-1.512-3.068-2.969-6.213-4.383-9.248-.877-1.885-1.742-3.747-2.619-5.588-1.512-1.14-2.728-3.451-3.89-5.7-1.271-2.411-2.564-4.909-3.9-5.117a1.937,1.937,0,0,0-1.589.745c-9.763,9.237-11.866,21.629-14.091,34.756-1.994,11.823-4.065,24.051-12.239,33.758l-.515.614-.362-.723c-3.6-7.21-5.216-14.737-6.925-22.7-.778-3.649-1.589-7.418-2.6-11.132-1.841-9.171-3.528-18.342-5.161-27.206-6.98-37.834-13.576-73.576-30.219-107.159-2.947-5.665-5.709-11.538-8.2-17.422A245.7,245.7,0,0,1,.007,247.934C.007,111.224,111.231,0,247.941,0S495.876,111.224,495.876,247.934a245.607,245.607,0,0,1-49.317,148.248c-3.8,5.084-7.9,10.157-12.2,15.066-13.346,14.759-18.046,33.1-23.021,52.517-4.01,15.658-8.163,31.852-17.257,46.216l-.066.088a2.5,2.5,0,0,1-2.652.394,6.192,6.192,0,0,1-2.312-1.446c-4.92-4.5-7.79-11.351-10.563-17.969-4.4-10.5-8.568-20.424-20.347-19.821-4.416,1.381-8.864,3.178-13.17,4.931q-2.4.97-4.81,1.928c-6.081,2.443-12.327,4.668-18.572,6.618-3.692,1.151-7.363,2.2-11.746,3.43a41.429,41.429,0,0,0-12.261,5.807c-.7.625-1.479,1.282-2.268,1.928a27.653,27.653,0,0,0-5.621,5.687c-3.714,4.416-6.64,9.774-9.237,16.918-1.216,3.342-2.246,6.76-3,9.357-1.961,12.338-7.188,23.558-12.239,34.4-3.955,8.481-8.042,17.246-10.431,26.374l-.055.131c-2.268,3.945-4.492,6.235-6.815,7.013Zm-3.32-4.208a25.232,25.232,0,0,0,3.473,3.035c1.95-.767,3.955-2.915,5.972-6.4,2.421-9.193,6.508-17.98,10.464-26.472,5.029-10.782,10.223-21.936,12.173-34.2.778-2.684,1.808-6.114,3.035-9.489,2.641-7.264,5.621-12.721,9.39-17.191a28.542,28.542,0,0,1,5.8-5.862c.767-.635,1.545-1.282,2.279-1.95a42.734,42.734,0,0,1,12.622-5.982c4.383-1.227,8.053-2.279,11.724-3.43,6.224-1.939,12.447-4.153,18.5-6.585q2.416-.953,4.8-1.928c4.35-1.764,8.842-3.594,13.324-4.985l.132-.022c12.568-.668,16.885,9.587,21.443,20.468,2.728,6.519,5.555,13.247,10.311,17.608a5.368,5.368,0,0,0,1.917,1.216,1.586,1.586,0,0,0,1.534-.11c8.985-14.2,13.1-30.3,17.093-45.855,5.007-19.547,9.73-38,23.262-52.955,4.262-4.887,8.338-9.938,12.129-14.989a244.635,244.635,0,0,0,49.109-147.623C494.824,111.8,384.071,1.052,247.941,1.052S1.059,111.8,1.059,247.934a244.857,244.857,0,0,0,19.427,96c2.487,5.862,5.237,11.7,8.174,17.356,16.709,33.715,23.316,69.533,30.307,107.444,1.644,8.853,3.331,18.013,5.15,27.151,1.019,3.7,1.83,7.495,2.608,11.154,1.644,7.626,3.188,14.847,6.487,21.717,7.56-9.39,9.554-21.191,11.483-32.619,2.159-12.721,4.383-25.869,14.4-35.336a2.9,2.9,0,0,1,2.476-1.03c1.874.285,3.232,2.9,4.679,5.665,1.14,2.191,2.323,4.459,3.682,5.413l.11.077.066.131c.888,1.874,1.775,3.791,2.674,5.709,1.413,3.035,2.871,6.169,4.383,9.237,4.317,8.777,9.894,18.912,18.517,27.535.844.844,3.682.844,4.525,0l.088-.066c4.536-2.915,8.755-6.914,12.842-10.793,4.766-4.514,9.7-9.182,15.23-12.272a29.028,29.028,0,0,1,8.316-3.177l.131-.033.121.044c37.889,11.4,56.79,29.2,56.154,52.944.405,2.871.767,5.862,1.14,8.853l.2,1.654c1.95,15.811,3.912,28.883,9.927,40.935" transform="translate(0.07 0.004)" fill="#56f273"/>
      <path id="Caminho_378" data-name="Caminho 378" d="M234.01,565.648a4.252,4.252,0,0,1-1.578-.307l-.164-.066-.1-.153c-2.378-3.966-3.6-8.01-4.9-12.283-.46-1.512-.931-3.068-1.479-4.7-1.611-6.991-2.684-14.178-3.616-20.928-.2-1.435-.395-2.882-.592-4.328q-.411-3.073-.833-6.125c-.219-10.048-1.644-23.963-11.581-29.485-14.244-7.67-25.639-15.11-34.953-26.483-2.673-2.674-6.377-4.021-11.286-4.065a24.7,24.7,0,0,0-7.7,2.465c-5.752,2.882-10.76,7.626-16.052,12.655a113.678,113.678,0,0,1-11.691,10.124c-2.663,1.348-6.432-.263-7.922-1.008l-.164-.121c-8.086-9.237-13.663-19.712-17.63-27.809-1.841-3.769-3.616-7.637-5.336-11.373l-1.545-3.342c-.5-.855-1.118-2.071-1.764-3.353-2.06-4.1-4.876-9.719-7.571-9.785-1.107-.033-2.191.931-3.254,2.838-6.684,10.321-9.094,21.5-11.658,33.331-1.83,8.448-3.725,17.181-7.3,25.672l-.11.164C62,488.423,59.7,490.724,58.26,489.3l-.121-.186C47.763,461.6,42.931,432.674,38.253,404.7c-4.81-28.751-9.785-58.5-20.807-86.253-2.312-6.213-4.1-11.4-5.632-16.326A231.513,231.513,0,0,1,1.459,233.487c0-127.945,104.08-232.036,232.025-232.036S465.52,105.542,465.52,233.487a230,230,0,0,1-44.836,136.951c-.9,1.227-1.808,2.443-2.739,3.682-.866,1.172-1.753,2.345-2.641,3.55-2.213,3.024-3.912,5.457-5.489,7.878-5.928,7.44-8.327,16.205-10.661,24.686-.405,1.468-.811,2.936-1.227,4.394-.373,1.435-.723,2.871-1.085,4.306-.5,1.983-1,3.956-1.512,5.895-3.3,12.579-7.495,25.311-19.076,30.833-4.394,1.95-8.535-2.1-13.335-6.793-6.234-6.092-13.313-13.006-22.834-8.777-2.235.964-4.47,1.961-6.728,2.958-3.145,1.4-6.388,2.849-9.642,4.207-5.544,2.345-11.253,4.5-16.972,6.41-3.824,1.282-7.747,2.465-11.647,3.55a48.322,48.322,0,0,0-13.762,8.042c-8.086,7.21-12.14,16.622-14.781,24.029-1.14,3.221-2.159,6.508-2.991,9.3-4.427,15.833-10.65,30.844-16.666,45.362-2.389,5.774-4.854,11.746-7.188,17.674l-.055.121c-1.863,2.586-3.747,3.9-5.643,3.9m-1.03-1.227c1.874.614,3.769-.449,5.774-3.243,2.323-5.917,4.788-11.877,7.177-17.63,5.993-14.485,12.206-29.463,16.611-45.252.855-2.816,1.863-6.114,3.024-9.368,2.673-7.517,6.8-17.082,15.077-24.467a49.779,49.779,0,0,1,14.134-8.251c3.923-1.085,7.823-2.268,11.636-3.539,5.687-1.907,11.373-4.054,16.9-6.388,3.243-1.359,6.487-2.794,9.631-4.2,2.246-1,4.481-1.994,6.717-2.958,10.179-4.525,17.838,2.969,24,8.985,4.525,4.427,8.437,8.24,12.162,6.585,11.154-5.314,15.252-17.805,18.5-30.132.515-1.939,1.008-3.9,1.5-5.884.362-1.435.723-2.882,1.1-4.328.427-1.468.822-2.936,1.227-4.4,2.356-8.579,4.8-17.454,10.826-25.015,1.567-2.411,3.265-4.854,5.5-7.889.888-1.205,1.764-2.378,2.641-3.561.92-1.227,1.841-2.454,2.739-3.671a229.019,229.019,0,0,0,44.617-136.327c0-127.364-103.609-230.973-230.973-230.973S2.511,106.123,2.511,233.487A230.4,230.4,0,0,0,12.821,301.8c1.523,4.92,3.309,10.08,5.61,16.26,11.067,27.853,16.041,57.656,20.862,86.472,4.657,27.875,9.478,56.7,19.788,84.073.723.471,2.6-1.37,3.331-2.093,3.506-8.371,5.38-17.027,7.2-25.387,2.575-11.932,5.018-23.2,11.779-33.649,1.271-2.279,2.619-3.364,4.175-3.353,3.342.066,6.2,5.774,8.5,10.365.636,1.26,1.238,2.465,1.753,3.331l1.567,3.4c1.72,3.736,3.5,7.582,5.336,11.351,3.923,8.009,9.434,18.364,17.4,27.491,1.161.57,4.646,2.093,6.815,1.008a114.079,114.079,0,0,0,11.516-9.993c5.347-5.073,10.409-9.872,16.293-12.831a25.8,25.8,0,0,1,8.119-2.575c5.2.044,9.259,1.534,12.129,4.4,9.237,11.286,20.544,18.66,34.679,26.275,10.42,5.785,11.91,20.073,12.129,30.318.285,1.972.559,4.021.833,6.07.186,1.446.383,2.893.581,4.328.92,6.717,1.994,13.883,3.594,20.785.526,1.589,1.008,3.156,1.468,4.679,1.315,4.328,2.454,8.086,4.7,11.888" transform="translate(14.527 14.452)" fill="#56f273"/>
      <path id="Caminho_379" data-name="Caminho 379" d="M219.669,534.185l-.307-.022c-1.348-.11-2.684-1.041-3.955-2.75l-.077-.142c-2.816-8.612-4.591-17.509-6.388-28.214l-.855-5.161c-.23-1.468-.482-2.936-.723-4.394-.405-1.994-.734-4.12-1.063-6.191-1.172-7.626-2.4-15.515-8-18.714-19.153-10.639-29.617-23.24-43.4-41.253-.931-1.863-4.832-2.936-7.374-2.115l-.121.022a22.736,22.736,0,0,0-7.725,2.191c-5.555,2.63-10.628,7.21-15.526,11.636-3.8,3.43-7.736,6.991-11.79,9.478a8.573,8.573,0,0,1-11.187-1.129l-.077-.1c-6.98-11.023-12.3-22.593-16.742-32.575q-1.183-2.663-2.356-5.347c-1.589-3.594-3.232-7.319-4.876-10.924-1.3-4.755-5.062-10.365-6.114-10.968-12.447,6.048-14.584,19.273-16.83,33.276-1.644,10.135-3.331,20.621-9.149,28.674l-.679.942-.263-1.129c-3.5-14.88-7.243-29.682-11.22-45.351C21.293,358.3,9.328,311.123,4.868,264.227c-5.051-53.108.57-98.163,17.191-137.74,2.663-5.6,5.588-11.121,8.722-16.457a217.927,217.927,0,0,1,77.575-77.575A215.631,215.631,0,0,1,217.346,2.9c119.168,0,216.126,96.958,216.126,216.126A215.569,215.569,0,0,1,403.341,329c-1.578,2.663-3.243,5.336-4.953,7.955-1.808,2.772-3.682,5.511-5.281,7.834-3.177,5.654-5.961,12.842-8.908,20.446-6.465,16.666-13.784,35.555-27.535,41.22-6.859,2.827-14.606,2.235-23.678-1.8a13.449,13.449,0,0,0-8.47,2.586c-2.005.964-3.934,1.907-5.873,2.86-3.572,1.753-7.264,3.561-10.968,5.248-5.709,2.641-11.6,5.051-17.509,7.177-3.78,1.348-7.659,2.619-11.527,3.769a39.325,39.325,0,0,0-10.365,5.566,48.3,48.3,0,0,0-8.141,7.747c-6.98,8.36-10.376,18.813-13.028,27.962-.548,1.918-1.085,3.824-1.611,5.741l-1.249,4.47c-2.246,10.508-6.892,20.566-11.384,30.3-3.638,7.867-7.4,16.008-9.894,24.412l-.044.131-.11.1a4.645,4.645,0,0,1-3.145,1.457m-3.364-3.331c1.063,1.413,2.126,2.169,3.145,2.257a3.394,3.394,0,0,0,2.542-1.063c2.531-8.415,6.278-16.545,9.916-24.4,4.46-9.686,9.083-19.69,11.308-30.121.427-1.512.844-3,1.26-4.481.537-1.928,1.063-3.846,1.622-5.752,2.673-9.259,6.114-19.843,13.236-28.357a49.877,49.877,0,0,1,8.305-7.911,40.455,40.455,0,0,1,10.672-5.72c3.879-1.161,7.736-2.421,11.494-3.769,5.884-2.115,11.746-4.514,17.422-7.133,3.7-1.687,7.385-3.5,10.957-5.237,1.939-.953,3.868-1.907,5.8-2.827a14.47,14.47,0,0,1,9.138-2.728l.2.044c8.842,3.955,16.348,4.547,22.944,1.83,13.335-5.489,20.566-24.16,26.954-40.628,2.958-7.637,5.763-14.858,9.007-20.621,1.611-2.356,3.5-5.1,5.292-7.856,1.7-2.6,3.353-5.259,4.931-7.911a214.627,214.627,0,0,0,29.978-109.438c0-118.587-96.476-215.064-215.074-215.064-75.954,0-147.1,40.848-185.655,106.6-3.112,5.3-6.026,10.8-8.667,16.348-36.991,88.105-12.666,184.011,10.869,276.751,3.879,15.274,7.538,29.715,10.957,44.222,5.139-7.725,6.739-17.652,8.294-27.272,2.3-14.343,4.492-27.9,17.6-34.142l.23-.055c1.589,0,5.862,7.013,7.144,11.713,1.622,3.517,3.265,7.254,4.854,10.858q1.167,2.662,2.356,5.336c4.416,9.938,9.708,21.443,16.633,32.389a7.569,7.569,0,0,0,9.839.953,83.25,83.25,0,0,0,11.647-9.379c4.964-4.481,10.091-9.105,15.789-11.8a23.909,23.909,0,0,1,8.021-2.279c2.783-.866,7.341.153,8.546,2.575,13.641,17.827,24.04,30.351,43.017,40.891,6.048,3.462,7.308,11.6,8.535,19.482.318,2.049.646,4.164,1.052,6.147.241,1.479.482,2.948.723,4.427.285,1.709.57,3.43.855,5.15,1.786,10.628,3.55,19.449,6.322,27.973" transform="translate(30.665 28.909)" fill="#56f273"/>
      <path id="Caminho_380" data-name="Caminho 380" d="M207.944,501.155c-2.213,0-4.273-2.334-6.289-7.1l-.011-.044c-.877-2.772-1.644-5.665-2.367-8.864-.6-2.684-1.172-5.621-1.742-8.963-.559-3-.9-6.3-1.238-9.489-1.019-9.62-1.983-18.7-7.988-20.95-18.988-6.333-27.261-20.106-36-34.679-2.915-4.843-5.917-9.85-9.357-14.562a11.382,11.382,0,0,0-7.33-2.553c-11.932-.186-21.914,8.744-31.107,17.926a13.31,13.31,0,0,1-10.541,3.638,7.913,7.913,0,0,1-6.1-3.736c-8.075-13.017-13.926-26.943-19.591-40.42q-1.512-3.616-3.057-7.221a109.256,109.256,0,0,0-7.078-14.365c-1.293-1.392-2.663-2.038-4.01-1.841-2.126.3-4.361,2.673-6.454,6.87-2.509,5.424-4.043,11.319-5.533,17.027-2.257,8.623-4.58,17.553-10.332,25.234l-.668.877-.263-1.063C19.89,353.948,8.254,303.283,5.2,252.925,1.811,197.077,9.305,150.094,28.1,109.29c3.057-5.665,6.432-11.22,10.058-16.578A200.206,200.206,0,0,1,204.12,4.355c110.4,0,200.217,89.825,200.217,200.217a198.011,198.011,0,0,1-18.9,84.895c-1.205,2.564-2.487,5.139-3.791,7.648-3.813,7.188-6.958,15.351-10.289,24.007-10.069,26.1-20.446,53.021-49.69,53.021a55.733,55.733,0,0,1-9.4-.844,26.248,26.248,0,0,0-5.183,2.926c-4.887,2.947-9.916,5.687-14.989,8.185-5.106,2.509-10.387,4.821-15.679,6.881-3.693,1.435-7.527,2.794-11.373,4.032-.592.241-1.183.482-1.764.712a39.358,39.358,0,0,0-10.146,5.347c-3.221,1.841-5.873,4.624-8.437,8.766-5.884,8.536-8.842,19.284-11.373,29.551-.3,1.205-.592,2.41-.877,3.616-.57,2.356-1.14,4.711-1.742,7.034-3.1,15.154-10.278,28.839-17.213,42.086-1.457,2.772-2.9,5.544-4.317,8.327l-.11.208-.219.055a3.243,3.243,0,0,1-.9.131m-5.3-7.484c1.337,3.167,3.408,6.782,5.7,6.388,1.381-2.717,2.794-5.413,4.218-8.119,6.9-13.17,14.036-26.8,17.126-41.823.592-2.356,1.161-4.7,1.731-7.045.3-1.216.592-2.422.888-3.627,2.542-10.365,5.533-21.213,11.516-29.869,2.63-4.284,5.413-7.177,8.733-9.072a40.551,40.551,0,0,1,10.332-5.446c.581-.23,1.172-.471,1.8-.723,3.868-1.249,7.67-2.608,11.351-4.032,5.27-2.049,10.519-4.35,15.6-6.848,5.04-2.476,10.048-5.2,14.869-8.108a27.173,27.173,0,0,1,5.489-3.079l.142-.055.153.022c35.84,6.224,47.148-23.119,58.083-51.5,3.342-8.678,6.5-16.874,10.332-24.116,1.3-2.5,2.575-5.051,3.78-7.6a197.1,197.1,0,0,0,18.8-84.445C403.285,94.75,313.942,5.418,204.12,5.418A199.16,199.16,0,0,0,39.021,93.3c-3.594,5.325-6.958,10.858-9.982,16.457C-10.658,195.949,6.731,298,31.614,395.53c5.161-7.308,7.374-15.778,9.511-23.974,1.5-5.741,3.046-11.68,5.6-17.213,2.3-4.591,4.733-7.1,7.254-7.462,1.72-.241,3.4.515,5.007,2.257a108.589,108.589,0,0,1,7.21,14.584c1.03,2.4,2.038,4.81,3.057,7.232,5.643,13.433,11.483,27.327,19.525,40.278a6.965,6.965,0,0,0,5.325,3.243,12.242,12.242,0,0,0,9.664-3.342c9.357-9.346,19.514-18.463,31.874-18.232a12.342,12.342,0,0,1,8.031,2.827l.088.1c3.484,4.766,6.508,9.817,9.445,14.693,8.645,14.408,16.819,28.017,35.457,34.23,6.64,2.487,7.681,12.327,8.678,21.837.34,3.167.69,6.443,1.227,9.412.57,3.331,1.14,6.245,1.742,8.919.712,3.156,1.479,6.026,2.334,8.755" transform="translate(43.891 43.367)" fill="#56f273"/>
      <path id="Caminho_381" data-name="Caminho 381" d="M196.275,464.149l-.383-.153c-2.323-.92-4.383-4.218-6.267-10.1v-.022c-.668-2.421-1.315-4.887-1.95-7.352-1.37-11.735-7.21-31.677-31.118-34.2h-.011c-2.3,0-5.621-3.243-6.771-6.684-5.128-14.386-10.475-28.313-19.219-40.431a12.934,12.934,0,0,0-8.393-2.619c-6.311.263-12.02,3.682-17.553,6.991-6.454,3.857-13.126,7.867-20.818,6.892-9.346-1.863-12.294-11.636-14.9-20.259-.449-1.49-.888-2.947-1.359-4.35-3.2-8.163-6.629-16.183-10.19-23.81-1.841-3.934-3.747-7.834-5.676-11.614-.537-.789-1.15-1.885-1.8-3.035-2.027-3.6-4.547-8.086-7.823-8.82a5.31,5.31,0,0,0-4.284,1.15c-3.386,3.4-5.6,7.56-7.736,11.571a54.572,54.572,0,0,1-5.873,9.423l-.592.712-.307-.866C11.069,293.2,5.021,254.608,5.766,214.977c.778-41.012,8.864-79.942,23.4-112.594C32,97.156,35.109,92.039,38.429,87.131A184.3,184.3,0,0,1,191.213,5.808c101.626,0,184.307,82.67,184.307,184.3a184.387,184.387,0,0,1-5.818,46.008c-.745,2.926-1.589,5.862-2.487,8.744-5.106,10.979-7.955,23.284-10.716,35.183-4.8,20.687-9.752,42.075-26.625,56.253-4.865,3.78-10.891,3.561-17.279,3.32-6.289-.23-12.8-.471-18.408,3.287-2.454,1.654-4.964,3.265-7.473,4.788-2.531,1.545-5.128,3.035-7.725,4.449-5.227,2.838-10.639,5.457-16.107,7.768-3.528,1.5-7.3,2.958-11.187,4.35a40.034,40.034,0,0,0-9.73,5.676,52.881,52.881,0,0,0-7.867,7.7c-7.922,10.069-11.373,22.922-14.726,35.358-.427,1.611-.866,3.232-1.3,4.832-.942,3.43-1.72,6.048-2.5,8.492-4.317,12.995-10.19,24.555-19.054,37.484Zm-5.643-10.573c1.654,5.139,3.419,8.24,5.259,9.259,8.678-12.7,14.441-24.083,18.671-36.848.778-2.421,1.545-5.029,2.487-8.437l1.315-4.832c3.364-12.535,6.848-25.5,14.923-35.742a54.093,54.093,0,0,1,8.02-7.878,41.136,41.136,0,0,1,10-5.829c3.9-1.392,7.648-2.849,11.165-4.339,5.424-2.3,10.815-4.9,16.008-7.725,2.575-1.4,5.161-2.882,7.681-4.416,2.487-1.523,5-3.123,7.429-4.766,5.895-3.955,12.579-3.7,19.043-3.462,6.18.23,12.031.438,16.578-3.09,16.578-13.937,21.278-34.208,26.253-55.661,2.772-11.965,5.643-24.324,10.771-35.336.866-2.794,1.7-5.72,2.443-8.623a183.308,183.308,0,0,0,5.785-45.745c0-101.045-82.21-183.244-183.255-183.244A183.245,183.245,0,0,0,39.305,87.722c-3.3,4.887-6.4,9.971-9.193,15.121-28.6,64.252-31.063,153.54-6.191,222.492a58.205,58.205,0,0,0,5.172-8.525c2.169-4.087,4.427-8.316,7.988-11.877a6.389,6.389,0,0,1,5.194-1.381c3.736.833,6.377,5.555,8.514,9.335.635,1.14,1.238,2.2,1.786,3.013,1.961,3.846,3.879,7.768,5.72,11.7,3.572,7.648,7.012,15.69,10.234,23.908.471,1.424.92,2.9,1.37,4.394,2.641,8.744,5.38,17.794,14.058,19.525,7.286.92,13.521-2.816,20.106-6.76,5.654-3.375,11.483-6.87,18.057-7.133a14.116,14.116,0,0,1,9.127,2.86l.121.121c8.853,12.261,14.233,26.286,19.416,40.782.964,2.915,3.966,5.972,5.829,5.972,24.7,2.6,30.712,23.075,32.093,35.051.625,2.4,1.26,4.843,1.928,7.253" transform="translate(56.799 57.834)" fill="#56f273"/>
      <path id="Caminho_382" data-name="Caminho 382" d="M182.816,418.343l-.3-.175c-2.071-1.194-4.175-4.12-6.432-8.941l-.022-.077c-3.276-11.483-11.636-15.482-20.49-19.712a72.877,72.877,0,0,1-11.549-6.421c-8.218-4.832-11.351-14.266-14.671-24.248-3.9-11.724-7.922-23.842-20.884-28.422a42.582,42.582,0,0,0-8.864.5l-2.619.394c-5.347.8-10.4,1.567-15.022.175-19.438-5.358-27.655-24.544-35.61-43.1-.493-1.161-1-2.323-1.5-3.484-2.049-4.788-4.328-9.883-6.859-14.65-1.939-4.942-6.169-7.812-10.234-10.584-3.747-2.553-7.286-4.953-8.36-8.667-18.3-41.384-16-97.21,6.169-149.245a170.617,170.617,0,0,1,9.116-16.238A167.874,167.874,0,0,1,176.834,7.259c92.849,0,168.4,75.537,168.4,168.4,0,3.342-.1,6.728-.3,10.058-.2,3.287-.493,6.629-.877,9.927-2.9,11.516-4.536,23.853-6.1,35.775-3.55,26.91-7.221,54.73-25.563,74.551-3.55,4.043-8.557,2.246-13.85.329-6.432-2.3-13.072-4.69-18.462,2.29l-.1.088c-2.476,1.928-5.029,3.8-7.6,5.577s-5.237,3.517-7.911,5.15a167.748,167.748,0,0,1-16.709,8.974c-3.451,1.611-6.848,3.068-10.957,4.81a45.89,45.89,0,0,0-13.9,7.944,63.733,63.733,0,0,0-9.2,12.425c-5.336,7.692-8.163,17.542-10.9,27.086-1.435,4.964-2.9,10.1-4.722,14.9a67.762,67.762,0,0,1-3.649,8.119c-2.958,5.073-6.289,10.8-11.33,14.474Zm-5.752-9.522c2.016,4.3,3.934,7.067,5.7,8.251,4.69-3.55,7.9-9.05,10.738-13.926a64.651,64.651,0,0,0,3.583-7.977c1.8-4.755,3.265-9.872,4.69-14.825,2.761-9.62,5.621-19.558,11.034-27.36a64.271,64.271,0,0,1,9.379-12.633,46.891,46.891,0,0,1,14.233-8.141c4.054-1.731,7.462-3.189,10.9-4.788a169.091,169.091,0,0,0,16.6-8.919c2.652-1.622,5.3-3.342,7.878-5.117,2.52-1.753,5.04-3.6,7.495-5.5,5.84-7.516,13.148-4.9,19.591-2.575,5.172,1.852,9.642,3.462,12.71-.044,18.145-19.591,21.8-47.246,25.311-73.992,1.589-11.954,3.21-24.313,6.114-35.829.372-3.2.668-6.519.877-9.8.186-3.309.285-6.673.285-9.993,0-92.28-75.077-167.346-167.346-167.346a166.808,166.808,0,0,0-141.257,77.7,176.156,176.156,0,0,0-9.05,16.118C4.492,153.874,2.191,209.382,20.4,250.57c.986,3.419,4.372,5.72,7.944,8.152,4.021,2.728,8.568,5.829,10.617,11.023,2.531,4.744,4.8,9.861,6.87,14.671.515,1.161,1.008,2.323,1.5,3.484,8.218,19.175,15.964,37.287,34.931,42.513,4.4,1.326,9.357.581,14.573-.219.877-.131,1.753-.263,2.641-.383a43.514,43.514,0,0,1,9.149-.515l.131.033c13.5,4.733,17.619,17.126,21.6,29.1,3.254,9.8,6.333,19.043,14.244,23.7a72.814,72.814,0,0,0,11.428,6.355c8.667,4.142,17.63,8.426,21.037,20.336" transform="translate(71.177 72.282)" fill="#56f273"/>
      <path id="Caminho_383" data-name="Caminho 383" d="M167.512,363.114h-.3c-2.126-.077-4.35-1.161-6.629-3.21l-.055-.066c-4.3-5.478-10.541-6.147-16.589-6.793-5.216-.559-10.157-1.085-13.641-4.569-6.07-6.081-9.8-14.178-13.389-22.013-3.945-8.6-8.031-17.487-15.23-23.777-2.838-1.194-5.621-2.115-8.316-3-.734-.241-1.468-.482-2.191-.734C57.405,287.7,36.883,255.889,25.608,231.192c-1.8-3.462-3.5-7.078-5.029-10.694-13.094-29.9-15.416-65.336-6.552-99.774a152.519,152.519,0,0,1,299.1,29.113c.285,3.758.427,7.593.427,11.384-1.446,10.048-2.093,20.522-2.728,30.647-1.644,26.625-3.353,54.171-19.449,76.4a4.217,4.217,0,0,1-2.608,2.421c-2.159.6-4.613-.975-7.21-2.63a18.342,18.342,0,0,0-5.478-2.75,9.943,9.943,0,0,0-5.621,2.334c-1.326,1.161-2.663,2.411-4.087,3.747-.581.548-1.161,1.1-1.753,1.644a153.291,153.291,0,0,1-33.539,23.6c-3.44,1.786-7.045,3.5-10.716,5.073a55.313,55.313,0,0,0-12.885,5.928A46.187,46.187,0,0,0,197.118,317.8a95.271,95.271,0,0,0-7.955,12.7c-2.246,3.977-4.328,8.24-6.344,12.359a178.663,178.663,0,0,1-8.93,16.753c-2.1,2.345-4.229,3.506-6.377,3.506m-6.18-3.966c2.071,1.863,4.065,2.849,5.928,2.915,1.917.088,3.868-.953,5.785-3.09a180.824,180.824,0,0,0,8.831-16.589c2.016-4.12,4.109-8.393,6.355-12.4a98.72,98.72,0,0,1,8.042-12.831A47.222,47.222,0,0,1,206.9,306.763a55.772,55.772,0,0,1,13.1-6.037c3.594-1.545,7.177-3.243,10.6-5.018a151.8,151.8,0,0,0,33.3-23.448c.592-.537,1.172-1.085,1.764-1.633,1.359-1.282,2.772-2.608,4.142-3.8a10.845,10.845,0,0,1,6.377-2.553,18.362,18.362,0,0,1,5.95,2.9c2.389,1.523,4.657,2.98,6.355,2.5a3.337,3.337,0,0,0,1.994-1.95c15.964-22.056,17.663-49.438,19.3-75.921.635-10.146,1.282-20.643,2.728-30.658-.011-3.693-.153-7.495-.427-11.231C306.26,71.33,239.927,9.763,161.069,9.763A151.726,151.726,0,0,0,15.046,120.987c-8.809,34.208-6.5,69.4,6.5,99.095,1.534,3.6,3.21,7.188,5.018,10.65,11.2,24.533,31.545,56.089,64.942,67.221.734.241,1.457.493,2.191.734,2.739.9,5.577,1.83,8.481,3.068l.142.088c7.407,6.443,11.549,15.449,15.548,24.171,3.561,7.758,7.243,15.778,13.181,21.717,3.221,3.221,7.977,3.725,13.006,4.273,6.245.668,12.71,1.359,17.279,7.144" transform="translate(86.953 86.74)" fill="#56f273"/>
      <path id="Caminho_384" data-name="Caminho 384" d="M151.274,312.5a18.131,18.131,0,0,1-4.613-.657c-21.322-1.6-35.27-16.622-48.759-31.151-3.167-3.4-6.443-6.925-9.741-10.212-2.169-1.238-4.3-2.411-6.4-3.561-1.3-.723-2.6-1.435-3.879-2.159-21.772-9.7-35.446-29.463-48.649-48.572l-.373-.537c-1.994-3.4-3.846-6.892-5.522-10.409a135.043,135.043,0,0,1-13.17-58.5c0-75.318,61.271-136.579,136.579-136.579A136.773,136.773,0,0,1,282.878,135.555c.3,3.758.449,7.451.449,11.275-.931,35.15-5.8,70.486-34.931,91.041-2.389,2.663-4.92,5.259-7.505,7.725a136.955,136.955,0,0,1-35.643,24.555c-3.178,1.523-6.64,3.046-10.88,4.766-6,1.753-11.286,5.424-16.677,11.549-1.216,1.49-2.454,2.991-3.692,4.492-1.841,2.224-3.693,4.449-5.522,6.706-3.539,4.383-6.388,8.108-8.93,11.724l-.11.11a13.865,13.865,0,0,1-6.4,2.893,13.144,13.144,0,0,1-1.764.11M146.749,11.215c-74.727,0-135.527,60.8-135.527,135.527a134.081,134.081,0,0,0,13.072,58.039c1.665,3.5,3.5,6.958,5.457,10.31l.351.493c13.126,19,26.7,38.634,48.255,48.233,1.315.745,2.619,1.457,3.923,2.169,2.115,1.172,4.273,2.356,6.465,3.616l.11.088c3.342,3.309,6.629,6.859,9.817,10.289,13.368,14.387,27.184,29.266,48.123,30.811l.088.011a14.924,14.924,0,0,0,6.015.537,12.511,12.511,0,0,0,5.829-2.63c2.553-3.616,5.391-7.341,8.941-11.713q2.745-3.386,5.522-6.717,1.857-2.235,3.7-4.492c5.457-6.213,11.056-10.091,17.137-11.866,4.164-1.687,7.6-3.2,10.76-4.722a136.052,136.052,0,0,0,35.38-24.357c2.586-2.465,5.1-5.062,7.484-7.714l.088-.077c28.795-20.281,33.616-55.355,34.536-90.231,0-3.791-.153-7.451-.449-11.176C276.14,65.868,216.808,11.215,146.749,11.215" transform="translate(101.262 101.197)" fill="#56f273"/>
      <path id="Caminho_385" data-name="Caminho 385" d="M135.535,270.32a21.939,21.939,0,0,1-3.32-.263l-.131-.033C107.869,259.648,88.5,248.932,71.13,236.277c-1.8-1.052-3.616-2.191-5.358-3.353a122.691,122.691,0,0,1-10.2-7.56c-2.958-2.443-5.851-5.073-8.568-7.79s-5.347-5.61-7.79-8.579a120.62,120.62,0,1,1,213.256-87.678c.329,3.627.493,7.319.493,10.968-.877,24.412-6.925,46.03-17.5,62.542-1.841,3-3.835,5.983-5.928,8.831a122.108,122.108,0,0,1-39.774,34.712c-3.419,1.863-6.969,3.572-10.541,5.084-5.281,2.038-11.4,4.6-17.334,9.456a98.835,98.835,0,0,0-7.845,6.947,80.76,80.76,0,0,1-9.182,7.922,19.211,19.211,0,0,1-6.311,2.3,18.229,18.229,0,0,1-3.013.241m-3.1-1.293a19.272,19.272,0,0,0,5.939.011,17.86,17.86,0,0,0,5.928-2.159,80.1,80.1,0,0,0,9.018-7.78,96.83,96.83,0,0,1,7.911-7.012c6.048-4.953,12.25-7.56,17.6-9.609a115.51,115.51,0,0,0,10.431-5.04,121.047,121.047,0,0,0,39.423-34.4c2.082-2.827,4.065-5.774,5.884-8.766,10.475-16.359,16.479-37.791,17.345-62.006,0-3.594-.164-7.253-.493-10.847C245.894,60.439,193.574,12.667,132.292,12.667A119.557,119.557,0,0,0,40.023,208.326c2.421,2.947,5.029,5.807,7.725,8.5s5.555,5.292,8.5,7.725a120.415,120.415,0,0,0,10.1,7.495c1.731,1.15,3.528,2.279,5.358,3.353,17.323,12.622,36.607,23.295,60.724,33.627" transform="translate(115.73 115.655)" fill="#56f273"/>
      <path id="Caminho_386" data-name="Caminho 386" d="M121.746,233.28a16.518,16.518,0,0,1-4.054-.515l-.088-.033c-5.665-2.6-11.417-5.084-17.005-7.484-10.815-4.657-22.024-9.478-32.674-15.263-3.024-1.7-5.939-3.484-8.623-5.3a104.633,104.633,0,1,1,104.562,7.254c-3.539,1.731-7.188,3.276-10.716,4.766a82.713,82.713,0,0,0-11.691,7.319,80.218,80.218,0,0,1-11.264,7.056,19.257,19.257,0,0,1-6.169,2.038,15.947,15.947,0,0,1-2.279.164m-3.736-1.523a15.324,15.324,0,0,0,5.862.318,18.8,18.8,0,0,0,5.862-1.939,78.719,78.719,0,0,0,11.11-6.98,86.054,86.054,0,0,1,11.866-7.418c3.539-1.49,7.188-3.035,10.694-4.755a103.729,103.729,0,1,0-103.521-7.177c2.673,1.808,5.555,3.572,8.557,5.248,10.6,5.763,21.771,10.573,32.575,15.23,5.566,2.4,11.33,4.876,16.994,7.473" transform="translate(130.187 130.112)" fill="#56f273"/>
      <path id="Caminho_387" data-name="Caminho 387" d="M106.882,197.785a23.011,23.011,0,0,1-3.583-.285l-.033-.011c-1.994-.416-4-.953-6.125-1.611-1.819-.57-3.736-1.227-5.873-2.038a76.848,76.848,0,0,1-10.891-4.2,74.945,74.945,0,0,0-11.483-4.372c-2.717-1.161-5.336-2.421-7.834-3.78s-4.964-2.86-7.33-4.459a88.861,88.861,0,1,1,99.292,0,94.811,94.811,0,0,1-15.077,8.316c-5.763,2.706-11.866,5.884-16.545,8.349-5.183,2.739-9.96,4.087-14.518,4.087m-3.408-1.326c5.38.866,11.088-.34,17.433-3.692,4.69-2.465,10.8-5.654,16.589-8.382a93.378,93.378,0,0,0,14.934-8.229,87.8,87.8,0,1,0-98.109,0c2.334,1.578,4.777,3.057,7.243,4.4s5.062,2.6,7.67,3.714a75.962,75.962,0,0,1,11.582,4.4A76.951,76.951,0,0,0,91.6,192.844c2.159.811,4.054,1.468,5.851,2.027,2.1.646,4.065,1.172,6.026,1.589" transform="translate(144.635 144.57)" fill="#56f273"/>
      <path id="Caminho_388" data-name="Caminho 388" d="M91.5,164.305c-.888,0-1.764-.033-2.63-.11l-.044-.011C79.726,162.5,70,160.35,60.551,156.121a72.972,72.972,0,1,1,69.128-6.728,84.917,84.917,0,0,1-12.37,6.9c-3.945,1.83-8.645,3.955-13.63,5.752A35.82,35.82,0,0,1,91.5,164.305M89,163.144a33.652,33.652,0,0,0,14.321-2.082c4.953-1.786,9.62-3.9,13.543-5.73a82.52,82.52,0,0,0,12.228-6.815,71.614,71.614,0,1,0-68.119,6.64c9.346,4.175,18.988,6.311,28.028,7.988" transform="translate(159.093 159.017)" fill="#56f273"/>
      <path id="Caminho_389" data-name="Caminho 389" d="M75.787,132.175c-.449,0-.9-.011-1.337-.022a60.2,60.2,0,0,1-15.143-2.608A60.737,60.737,0,0,1,45.7,123.695a57.031,57.031,0,1,1,85.8-49.241,56.636,56.636,0,0,1-16.72,40.311,57.313,57.313,0,0,1-11.549,8.93,70.453,70.453,0,0,1-13.6,6.158,43.981,43.981,0,0,1-13.85,2.323m-1.3-1.074a42.363,42.363,0,0,0,14.825-2.257,68.89,68.89,0,0,0,13.389-6.059,55.985,55.985,0,1,0-56.461,0A59.3,59.3,0,0,0,59.6,128.527a59.144,59.144,0,0,0,14.88,2.575" transform="translate(173.55 173.485)" fill="#56f273"/>
      <path id="Caminho_390" data-name="Caminho 390" d="M60.265,101.195h-.252A41.339,41.339,0,0,1,30.945,89.065,41.12,41.12,0,1,1,101.146,60,40.811,40.811,0,0,1,89.082,89.065a41.368,41.368,0,0,1-13.072,8.853,39.57,39.57,0,0,1-15.745,3.276m-.252-81.268A40.048,40.048,0,0,0,31.69,88.32a39.72,39.72,0,0,0,12.743,8.6,40.26,40.26,0,0,0,15.581,3.221,38.736,38.736,0,0,0,15.581-3.188A40.413,40.413,0,0,0,88.337,88.32,40.056,40.056,0,0,0,60.013,19.927" transform="translate(187.998 187.942)" fill="#56f273"/>
      <path id="Caminho_391" data-name="Caminho 391" d="M45.556,70.762A25.217,25.217,0,1,1,70.779,45.55,25.247,25.247,0,0,1,45.556,70.762m0-49.383A24.166,24.166,0,1,0,69.716,45.55a24.2,24.2,0,0,0-24.16-24.171" transform="translate(202.455 202.4)" fill="#56f273"/>
      <path id="Caminho_392" data-name="Caminho 392" d="M247.731,596.667l-.219-.153a25.941,25.941,0,0,1-3.912-3.375l-.1-.131c-6.6-13.192-8.514-28.817-10.058-41.352L233.235,550c-.362-2.991-.734-5.972-1.14-8.93.614-23.262-17.98-40.716-55.278-51.958a28.3,28.3,0,0,0-7.878,3.046c-5.424,3.024-10.311,7.648-15.022,12.118-4.109,3.9-8.349,7.922-12.951,10.88-1.293,1.227-4.722,1.205-5.972-.044-8.733-8.733-14.365-18.956-18.725-27.82-1.512-3.068-2.969-6.213-4.383-9.248-.877-1.885-1.742-3.747-2.619-5.588-1.512-1.14-2.728-3.451-3.89-5.7-1.271-2.411-2.564-4.909-3.9-5.117a1.937,1.937,0,0,0-1.589.745c-9.763,9.237-11.866,21.629-14.091,34.755C83.8,508.968,81.733,521.2,73.559,530.9l-.515.614-.362-.723c-3.6-7.21-5.216-14.737-6.925-22.7-.778-3.649-1.589-7.418-2.6-11.132-1.841-9.171-3.528-18.342-5.161-27.206-6.98-37.834-13.576-73.576-30.219-107.159-2.947-5.665-5.709-11.538-8.2-17.422A245.7,245.7,0,0,1,.071,248.761C.071,112.051,111.3.827,248.005.827S495.94,112.051,495.94,248.761a245.606,245.606,0,0,1-49.317,148.248c-3.8,5.084-7.9,10.157-12.2,15.066-13.346,14.759-18.046,33.1-23.021,52.517-4.01,15.658-8.163,31.852-17.257,46.216l-.066.088a2.5,2.5,0,0,1-2.652.394,6.192,6.192,0,0,1-2.312-1.446c-4.92-4.5-7.79-11.351-10.563-17.969-4.4-10.5-8.568-20.424-20.347-19.821-4.416,1.381-8.864,3.178-13.17,4.931q-2.4.97-4.81,1.928c-6.081,2.443-12.327,4.668-18.583,6.618-3.682,1.15-7.352,2.2-11.735,3.43a41.43,41.43,0,0,0-12.261,5.807c-.7.625-1.479,1.282-2.268,1.928a27.655,27.655,0,0,0-5.621,5.687c-3.714,4.416-6.64,9.774-9.237,16.918-1.216,3.342-2.246,6.76-3,9.357-1.961,12.338-7.188,23.557-12.239,34.4-3.955,8.481-8.042,17.246-10.431,26.373l-.055.132c-2.268,3.944-4.492,6.234-6.815,7.012Zm-3.32-4.207a25.235,25.235,0,0,0,3.473,3.035c1.95-.767,3.955-2.914,5.972-6.4,2.421-9.193,6.508-17.98,10.464-26.472,5.029-10.782,10.223-21.936,12.173-34.2.778-2.684,1.808-6.114,3.035-9.489,2.641-7.264,5.632-12.721,9.39-17.191a28.54,28.54,0,0,1,5.8-5.862c.767-.635,1.545-1.282,2.279-1.95a42.736,42.736,0,0,1,12.622-5.983c4.383-1.227,8.053-2.279,11.724-3.43,6.224-1.939,12.447-4.153,18.5-6.585q2.416-.953,4.8-1.928c4.35-1.764,8.842-3.594,13.324-4.985l.131-.022c12.568-.668,16.885,9.587,21.443,20.468,2.728,6.519,5.555,13.247,10.311,17.608a5.37,5.37,0,0,0,1.917,1.216,1.586,1.586,0,0,0,1.534-.11c8.985-14.2,13.1-30.3,17.093-45.855,5.007-19.547,9.73-38,23.251-52.955,4.273-4.887,8.349-9.927,12.14-14.989a244.634,244.634,0,0,0,49.109-147.623c0-136.129-110.753-246.883-246.883-246.883S1.123,112.632,1.123,248.761a244.857,244.857,0,0,0,19.427,96c2.487,5.862,5.237,11.7,8.174,17.356C45.433,395.837,52.04,431.655,59.03,469.566c1.644,8.853,3.331,18.013,5.15,27.151,1.019,3.7,1.83,7.495,2.619,11.154,1.633,7.626,3.178,14.847,6.476,21.717,7.56-9.39,9.554-21.191,11.494-32.619,2.148-12.721,4.372-25.869,14.386-35.336a2.9,2.9,0,0,1,2.476-1.03c1.874.285,3.232,2.9,4.679,5.665,1.14,2.191,2.323,4.46,3.682,5.413l.11.077.066.131c.888,1.874,1.775,3.791,2.674,5.709,1.413,3.035,2.871,6.169,4.383,9.237,4.317,8.777,9.894,18.912,18.517,27.535.844.844,3.682.844,4.525,0l.088-.066c4.536-2.914,8.755-6.914,12.842-10.793,4.766-4.514,9.686-9.182,15.23-12.272a29.028,29.028,0,0,1,8.316-3.177l.132-.033.121.044c37.889,11.4,56.79,29.2,56.154,52.944.405,2.871.767,5.862,1.14,8.853l.2,1.655c1.95,15.822,3.912,28.883,9.927,40.935" transform="translate(0.707 8.239)" fill="#f44aaf"/>
      <path id="Caminho_393" data-name="Caminho 393" d="M234.074,566.465a4.25,4.25,0,0,1-1.578-.307l-.164-.066-.1-.153c-2.378-3.966-3.6-8.01-4.9-12.283-.46-1.512-.931-3.068-1.479-4.7-1.611-6.991-2.7-14.178-3.616-20.928-.2-1.435-.394-2.882-.592-4.328q-.411-3.073-.833-6.125c-.219-10.048-1.644-23.963-11.582-29.485-14.244-7.659-25.639-15.11-34.953-26.483-2.674-2.673-6.388-4.021-11.286-4.065a24.7,24.7,0,0,0-7.7,2.465c-5.752,2.882-10.76,7.626-16.052,12.655a112.358,112.358,0,0,1-11.691,10.124c-2.663,1.348-6.432-.263-7.922-1.008l-.164-.121c-8.086-9.237-13.663-19.712-17.63-27.809-1.841-3.769-3.616-7.637-5.336-11.373l-1.545-3.342c-.515-.855-1.118-2.071-1.764-3.353-2.06-4.1-4.876-9.719-7.582-9.785-1.1-.033-2.191.931-3.243,2.838-6.684,10.321-9.105,21.5-11.658,33.331-1.841,8.448-3.725,17.181-7.3,25.672l-.121.164c-1.238,1.238-3.528,3.539-4.964,2.115l-.121-.186C47.827,462.417,43,433.491,38.317,405.518c-4.81-28.751-9.785-58.5-20.807-86.253-2.312-6.213-4.1-11.4-5.632-16.326A231.513,231.513,0,0,1,1.523,234.3C1.523,106.359,105.6,2.279,233.548,2.279S465.573,106.359,465.573,234.3a229.989,229.989,0,0,1-44.825,136.951c-.9,1.227-1.819,2.443-2.739,3.682-.877,1.172-1.753,2.345-2.641,3.55-2.213,3.024-3.912,5.457-5.489,7.878-5.928,7.44-8.338,16.205-10.661,24.686-.405,1.468-.811,2.937-1.227,4.394-.373,1.435-.734,2.871-1.1,4.306-.493,1.983-.986,3.956-1.5,5.895-3.3,12.579-7.495,25.311-19.076,30.833-4.394,1.95-8.535-2.1-13.335-6.793-6.235-6.092-13.313-13.006-22.834-8.776-2.235.964-4.47,1.961-6.728,2.958-3.145,1.4-6.388,2.849-9.642,4.207-5.544,2.345-11.253,4.5-16.972,6.41-3.824,1.282-7.747,2.465-11.647,3.55a48.322,48.322,0,0,0-13.762,8.042c-8.086,7.21-12.14,16.622-14.781,24.029-1.139,3.221-2.159,6.508-3,9.3-4.416,15.833-10.639,30.844-16.655,45.362-2.389,5.774-4.865,11.746-7.188,17.674l-.055.121c-1.863,2.586-3.758,3.9-5.643,3.9m-1.03-1.227c1.874.614,3.758-.449,5.774-3.243,2.323-5.917,4.788-11.866,7.177-17.63,5.993-14.485,12.206-29.463,16.611-45.252.844-2.816,1.863-6.114,3.024-9.357,2.673-7.527,6.793-17.093,15.077-24.478a49.878,49.878,0,0,1,14.124-8.251c3.934-1.085,7.834-2.268,11.647-3.539,5.687-1.906,11.373-4.054,16.9-6.388,3.232-1.359,6.487-2.794,9.62-4.2,2.257-1,4.492-1.994,6.728-2.958,10.179-4.525,17.838,2.969,24,8.985,4.525,4.427,8.437,8.24,12.162,6.585,11.154-5.314,15.252-17.805,18.5-30.132.515-1.939,1.008-3.9,1.5-5.884.362-1.435.723-2.882,1.1-4.328.427-1.468.822-2.936,1.227-4.4,2.356-8.579,4.8-17.454,10.826-25.015,1.567-2.411,3.265-4.854,5.5-7.889.888-1.205,1.764-2.378,2.641-3.561.92-1.227,1.83-2.443,2.739-3.671A229.019,229.019,0,0,0,464.521,234.3c0-127.364-103.609-230.973-230.973-230.973S2.575,106.94,2.575,234.3a230.043,230.043,0,0,0,10.311,68.317c1.523,4.92,3.309,10.08,5.61,16.26,11.067,27.853,16.041,57.656,20.862,86.473,4.657,27.875,9.478,56.7,19.788,84.073.723.471,2.6-1.37,3.331-2.093,3.506-8.371,5.38-17.027,7.2-25.387,2.575-11.932,5.018-23.2,11.779-33.649,1.271-2.279,2.619-3.364,4.175-3.353,3.342.066,6.2,5.774,8.5,10.365.635,1.26,1.238,2.465,1.753,3.331l1.567,3.4c1.72,3.736,3.5,7.582,5.336,11.351,3.912,8.01,9.434,18.364,17.4,27.491,1.161.57,4.646,2.093,6.815,1.008a114.08,114.08,0,0,0,11.516-9.993c5.347-5.073,10.409-9.872,16.293-12.831a25.8,25.8,0,0,1,8.119-2.575c5.194.044,9.259,1.534,12.129,4.4,9.237,11.286,20.533,18.66,34.679,26.275,10.42,5.785,11.91,20.073,12.129,30.318.274,1.972.559,4.021.833,6.07.186,1.446.384,2.893.581,4.328.92,6.717,1.994,13.883,3.594,20.785.526,1.589,1.008,3.156,1.468,4.679,1.315,4.328,2.443,8.086,4.7,11.888" transform="translate(15.164 22.696)" fill="#f44aaf"/>
      <path id="Caminho_394" data-name="Caminho 394" d="M219.733,535.012l-.307-.022c-1.348-.12-2.684-1.041-3.955-2.75l-.077-.153c-2.816-8.6-4.591-17.5-6.388-28.2l-.855-5.161c-.23-1.468-.482-2.936-.723-4.394-.405-1.994-.734-4.12-1.063-6.191-1.172-7.626-2.4-15.515-8-18.714-19.153-10.639-29.617-23.24-43.4-41.264-.931-1.852-4.832-2.926-7.374-2.1l-.121.022a22.734,22.734,0,0,0-7.725,2.191c-5.555,2.63-10.628,7.21-15.526,11.636-3.8,3.43-7.736,6.991-11.79,9.478a8.573,8.573,0,0,1-11.187-1.129l-.077-.1c-6.98-11.023-12.3-22.593-16.742-32.575q-1.183-2.663-2.356-5.347c-1.589-3.594-3.232-7.319-4.876-10.924-1.3-4.755-5.062-10.365-6.114-10.968C58.633,394.39,56.5,407.615,54.25,421.618c-1.644,10.135-3.331,20.621-9.149,28.674l-.679.942-.263-1.128c-3.484-14.88-7.243-29.682-11.22-45.362C21.357,359.13,9.392,311.95,4.932,265.054c-5.051-53.108.57-98.164,17.191-137.74,2.663-5.6,5.588-11.121,8.722-16.457a217.927,217.927,0,0,1,77.575-77.575A215.631,215.631,0,0,1,217.41,3.73c119.168,0,216.126,96.958,216.126,216.126A215.568,215.568,0,0,1,403.4,329.831c-1.578,2.663-3.243,5.336-4.953,7.955-1.808,2.772-3.682,5.511-5.281,7.834-3.178,5.654-5.961,12.842-8.908,20.446-6.465,16.666-13.784,35.555-27.535,41.22-6.859,2.827-14.606,2.235-23.678-1.8a13.507,13.507,0,0,0-8.47,2.575c-2.005.975-3.934,1.917-5.873,2.871-3.572,1.753-7.264,3.561-10.968,5.248-5.709,2.641-11.6,5.051-17.509,7.177-3.78,1.348-7.659,2.619-11.527,3.769a39.007,39.007,0,0,0-10.365,5.566,48.3,48.3,0,0,0-8.141,7.747c-6.98,8.36-10.387,18.813-13.028,27.962q-.822,2.86-1.611,5.741c-.416,1.49-.833,2.98-1.249,4.459-2.246,10.519-6.892,20.577-11.384,30.307-3.638,7.867-7.4,16.008-9.894,24.4l-.044.142-.11.1a4.645,4.645,0,0,1-3.145,1.457m-3.364-3.331c1.063,1.413,2.126,2.169,3.145,2.257a3.394,3.394,0,0,0,2.542-1.063c2.531-8.415,6.278-16.545,9.916-24.412,4.459-9.675,9.083-19.679,11.308-30.11.427-1.512.844-3,1.26-4.481.537-1.928,1.063-3.846,1.622-5.763,2.673-9.248,6.114-19.832,13.236-28.346a50.418,50.418,0,0,1,8.305-7.922,40.419,40.419,0,0,1,10.672-5.709c3.879-1.161,7.736-2.421,11.494-3.769,5.884-2.115,11.746-4.514,17.422-7.133,3.7-1.687,7.385-3.5,10.957-5.237,1.939-.953,3.868-1.907,5.8-2.827a14.47,14.47,0,0,1,9.138-2.728l.2.044c8.842,3.945,16.348,4.547,22.944,1.83,13.335-5.489,20.566-24.16,26.954-40.628,2.958-7.637,5.763-14.858,9.007-20.621,1.611-2.356,3.5-5.1,5.292-7.856,1.7-2.6,3.353-5.259,4.931-7.911a214.626,214.626,0,0,0,29.978-109.438c0-118.587-96.476-215.063-215.074-215.063-75.954,0-147.1,40.848-185.655,106.6-3.112,5.3-6.026,10.8-8.667,16.348C-13.9,215.846,10.422,311.752,33.957,404.492c3.879,15.274,7.538,29.715,10.957,44.222,5.139-7.725,6.739-17.652,8.283-27.272,2.312-14.343,4.5-27.9,17.608-34.142l.23-.055c1.589,0,5.862,7,7.144,11.713,1.622,3.517,3.265,7.243,4.854,10.847.778,1.786,1.567,3.561,2.367,5.347,4.416,9.938,9.7,21.443,16.622,32.389a7.583,7.583,0,0,0,9.85.953,83.82,83.82,0,0,0,11.636-9.379c4.964-4.481,10.091-9.105,15.789-11.8a23.939,23.939,0,0,1,8.021-2.29c2.783-.866,7.341.164,8.546,2.586,13.641,17.827,24.04,30.351,43.017,40.891,6.048,3.462,7.308,11.6,8.525,19.47.329,2.06.657,4.175,1.063,6.158.241,1.479.482,2.947.723,4.427.285,1.709.57,3.43.855,5.15,1.786,10.628,3.55,19.449,6.322,27.973" transform="translate(31.302 37.144)" fill="#f44aaf"/>
      <path id="Caminho_395" data-name="Caminho 395" d="M208.008,501.982c-2.213,0-4.273-2.334-6.289-7.1l-.011-.044c-.877-2.772-1.644-5.665-2.367-8.864-.6-2.684-1.172-5.621-1.742-8.963-.559-3-.909-6.3-1.238-9.489-1.019-9.62-1.983-18.7-7.988-20.95-18.988-6.333-27.261-20.106-36-34.679-2.915-4.843-5.917-9.85-9.357-14.562a11.383,11.383,0,0,0-7.33-2.553c-11.932-.186-21.914,8.744-31.107,17.926a13.357,13.357,0,0,1-10.541,3.649,7.952,7.952,0,0,1-6.1-3.747C79.856,399.589,74,385.663,68.34,372.186q-1.512-3.616-3.057-7.221A109.935,109.935,0,0,0,58.2,350.6c-1.293-1.392-2.663-2.038-4.01-1.841-2.126.3-4.361,2.673-6.454,6.87-2.509,5.424-4.043,11.319-5.533,17.027-2.257,8.623-4.58,17.553-10.332,25.234l-.668.877-.274-1.063C19.954,354.786,8.318,304.11,5.261,253.752,1.875,197.9,9.369,150.921,28.161,110.117c3.057-5.665,6.432-11.22,10.059-16.578A200.206,200.206,0,0,1,204.184,5.182C314.587,5.182,404.4,95.007,404.4,205.4a198.011,198.011,0,0,1-18.9,84.895c-1.205,2.564-2.487,5.139-3.791,7.648-3.813,7.188-6.958,15.351-10.289,24.007-10.07,26.1-20.446,53.021-49.69,53.021a55.734,55.734,0,0,1-9.4-.844,26.251,26.251,0,0,0-5.183,2.926c-4.887,2.947-9.916,5.687-14.989,8.185-5.106,2.509-10.387,4.821-15.679,6.881-3.693,1.435-7.527,2.794-11.373,4.032-.592.241-1.183.482-1.764.712a39.354,39.354,0,0,0-10.146,5.347c-3.221,1.841-5.873,4.624-8.437,8.766-5.884,8.535-8.842,19.284-11.373,29.551-.3,1.205-.592,2.41-.877,3.616-.57,2.356-1.14,4.712-1.742,7.034-3.1,15.154-10.278,28.839-17.213,42.086-1.457,2.772-2.9,5.544-4.317,8.327l-.11.208-.219.055a3.242,3.242,0,0,1-.9.132m-5.3-7.484c1.337,3.167,3.408,6.782,5.7,6.388,1.381-2.717,2.794-5.413,4.218-8.119,6.9-13.17,14.036-26.8,17.126-41.823.592-2.356,1.161-4.7,1.731-7.045.3-1.216.592-2.422.887-3.627,2.542-10.365,5.533-21.213,11.516-29.869,2.63-4.284,5.413-7.177,8.733-9.072a40.548,40.548,0,0,1,10.332-5.446c.581-.23,1.172-.471,1.8-.723,3.868-1.249,7.67-2.608,11.351-4.032,5.27-2.049,10.519-4.35,15.6-6.848,5.04-2.476,10.048-5.2,14.869-8.108a27.174,27.174,0,0,1,5.489-3.079l.142-.055.153.022c35.84,6.224,47.148-23.119,58.083-51.5,3.342-8.678,6.5-16.874,10.332-24.116,1.3-2.5,2.575-5.051,3.78-7.6a197.1,197.1,0,0,0,18.8-84.445c0-109.822-89.343-199.154-199.165-199.154a199.16,199.16,0,0,0-165.1,87.886c-3.594,5.325-6.958,10.858-9.982,16.457-39.7,86.188-22.308,188.241,2.575,285.769,5.161-7.308,7.374-15.778,9.511-23.974,1.5-5.741,3.046-11.68,5.6-17.213,2.3-4.591,4.733-7.1,7.264-7.462,1.7-.241,3.386.515,5,2.257a108.594,108.594,0,0,1,7.21,14.584c1.03,2.4,2.038,4.81,3.057,7.232,5.643,13.433,11.483,27.327,19.514,40.278a7,7,0,0,0,5.336,3.243,12.243,12.243,0,0,0,9.664-3.342c9.357-9.346,19.514-18.462,31.874-18.232a12.342,12.342,0,0,1,8.031,2.827l.088.1c3.484,4.766,6.508,9.817,9.445,14.693,8.645,14.409,16.819,28.017,35.457,34.23,6.64,2.487,7.681,12.327,8.678,21.837.34,3.167.69,6.443,1.227,9.412.57,3.331,1.14,6.245,1.742,8.919.712,3.156,1.479,6.026,2.334,8.755" transform="translate(44.528 51.601)" fill="#f44aaf"/>
      <path id="Caminho_396" data-name="Caminho 396" d="M196.339,464.976l-.384-.153c-2.323-.92-4.383-4.229-6.267-10.113v-.022c-.668-2.411-1.315-4.876-1.95-7.341-1.37-11.735-7.21-31.677-31.118-34.2h-.011c-2.3,0-5.621-3.243-6.771-6.684-5.128-14.387-10.475-28.313-19.219-40.431a12.935,12.935,0,0,0-8.393-2.619c-6.311.252-12.02,3.682-17.553,6.991-6.454,3.857-13.126,7.856-20.829,6.892-9.335-1.863-12.283-11.636-14.891-20.259-.449-1.49-.888-2.947-1.359-4.35-3.2-8.163-6.629-16.194-10.19-23.82-1.841-3.923-3.747-7.823-5.676-11.6-.537-.8-1.15-1.885-1.8-3.035-2.027-3.6-4.547-8.086-7.823-8.82a5.271,5.271,0,0,0-4.284,1.15c-3.386,3.4-5.6,7.56-7.736,11.571a54.573,54.573,0,0,1-5.873,9.423l-.581.7-.318-.855C11.133,294.025,5.085,255.435,5.83,215.8c.778-41.012,8.864-79.942,23.4-112.594,2.827-5.226,5.939-10.343,9.259-15.252A184.3,184.3,0,0,1,191.277,6.635c101.626,0,184.307,82.67,184.307,184.3a184.385,184.385,0,0,1-5.818,46.008c-.745,2.926-1.589,5.862-2.487,8.744-5.106,10.979-7.955,23.284-10.716,35.183-4.8,20.687-9.752,42.075-26.625,56.242-4.865,3.791-10.891,3.561-17.279,3.331-6.289-.23-12.8-.482-18.408,3.276-2.454,1.665-4.964,3.276-7.473,4.8-2.531,1.545-5.128,3.035-7.725,4.449-5.226,2.838-10.639,5.457-16.107,7.769-3.528,1.49-7.3,2.958-11.187,4.35a40.037,40.037,0,0,0-9.73,5.676,52.881,52.881,0,0,0-7.867,7.7c-7.922,10.069-11.384,22.922-14.726,35.358-.427,1.611-.866,3.232-1.3,4.832-.942,3.429-1.72,6.048-2.5,8.492-4.317,12.995-10.19,24.555-19.054,37.484ZM190.7,454.4c1.655,5.128,3.419,8.24,5.259,9.259,8.678-12.7,14.441-24.083,18.671-36.848.778-2.422,1.545-5.029,2.487-8.437l1.315-4.832c3.364-12.535,6.848-25.5,14.923-35.742a53.089,53.089,0,0,1,8.031-7.878,40.867,40.867,0,0,1,9.993-5.829c3.9-1.392,7.648-2.849,11.165-4.339,5.424-2.3,10.815-4.9,16.008-7.725,2.575-1.4,5.161-2.882,7.681-4.416,2.5-1.523,5-3.123,7.429-4.766,5.895-3.955,12.579-3.7,19.043-3.462,6.18.23,12.031.438,16.578-3.09,16.578-13.937,21.278-34.208,26.253-55.672,2.772-11.954,5.643-24.314,10.771-35.325.866-2.794,1.7-5.72,2.443-8.623a183.306,183.306,0,0,0,5.785-45.745c0-101.045-82.21-183.244-183.255-183.244A183.245,183.245,0,0,0,39.369,88.549c-3.309,4.887-6.4,9.971-9.193,15.121C1.578,167.922-.887,257.21,23.986,326.162a58.2,58.2,0,0,0,5.172-8.525c2.169-4.087,4.427-8.316,7.988-11.877a6.39,6.39,0,0,1,5.194-1.381c3.736.833,6.377,5.544,8.514,9.335.636,1.129,1.238,2.2,1.786,3.013,1.961,3.846,3.879,7.758,5.72,11.7,3.572,7.648,7.012,15.69,10.234,23.908.471,1.424.92,2.893,1.37,4.394,2.641,8.744,5.38,17.794,14.058,19.525,7.286.92,13.521-2.816,20.106-6.76,5.654-3.375,11.483-6.87,18.057-7.133a14.116,14.116,0,0,1,9.127,2.86l.121.121c8.853,12.25,14.233,26.286,19.416,40.782.964,2.915,3.966,5.972,5.829,5.972,24.7,2.6,30.712,23.075,32.093,35.051.625,2.4,1.26,4.843,1.928,7.254" transform="translate(57.436 66.069)" fill="#f44aaf"/>
      <path id="Caminho_397" data-name="Caminho 397" d="M182.881,419.17l-.3-.175c-2.071-1.194-4.175-4.12-6.432-8.941l-.033-.077c-3.265-11.483-11.625-15.482-20.479-19.712a72.871,72.871,0,0,1-11.549-6.421c-8.218-4.832-11.351-14.266-14.671-24.248-3.9-11.724-7.922-23.842-20.884-28.422a42.536,42.536,0,0,0-8.864.5l-2.619.394c-5.347.8-10.4,1.567-15.022.175-19.438-5.358-27.666-24.544-35.61-43.1-.5-1.161-1-2.323-1.5-3.484-2.071-4.788-4.328-9.883-6.859-14.649-1.939-4.942-6.169-7.812-10.256-10.584-3.736-2.553-7.275-4.953-8.338-8.667-18.3-41.384-16-97.21,6.158-149.245a170.712,170.712,0,0,1,9.127-16.238A167.847,167.847,0,0,1,176.9,8.086c92.849,0,168.4,75.537,168.4,168.4,0,3.342-.1,6.728-.3,10.058-.2,3.287-.493,6.629-.887,9.927-2.893,11.516-4.525,23.853-6.092,35.775-3.55,26.91-7.221,54.73-25.585,74.551-3.528,4.043-8.535,2.246-13.85.329-6.41-2.3-13.061-4.69-18.441,2.29l-.1.088c-2.476,1.928-5.029,3.8-7.6,5.577s-5.237,3.517-7.911,5.15a167.751,167.751,0,0,1-16.709,8.974c-3.451,1.611-6.859,3.068-10.968,4.81a45.709,45.709,0,0,0-13.893,7.944,63.3,63.3,0,0,0-9.2,12.425c-5.336,7.692-8.163,17.553-10.9,27.086-1.435,4.964-2.9,10.1-4.722,14.9a67.753,67.753,0,0,1-3.649,8.119c-2.958,5.073-6.3,10.8-11.33,14.474Zm-5.752-9.522c2.016,4.3,3.934,7.067,5.7,8.251,4.69-3.55,7.9-9.05,10.738-13.926A64.654,64.654,0,0,0,197.147,396c1.8-4.755,3.265-9.872,4.69-14.825,2.761-9.62,5.621-19.558,11.034-27.36a64.271,64.271,0,0,1,9.379-12.633,46.711,46.711,0,0,1,14.222-8.141c4.065-1.731,7.473-3.188,10.9-4.788a168.024,168.024,0,0,0,16.611-8.919c2.652-1.622,5.292-3.342,7.856-5.117,2.542-1.753,5.062-3.6,7.506-5.5,5.851-7.516,13.159-4.9,19.6-2.575,5.172,1.863,9.642,3.462,12.71-.044,18.134-19.591,21.782-47.246,25.311-73.992,1.578-11.954,3.21-24.314,6.114-35.829.373-3.2.668-6.519.866-9.8.186-3.309.3-6.673.3-9.993C344.245,84.2,269.168,9.138,176.9,9.138a166.808,166.808,0,0,0-141.257,77.7,171.109,171.109,0,0,0-9.05,16.118C4.557,154.7,2.256,210.209,20.455,251.4c.986,3.419,4.372,5.72,7.955,8.152,4.021,2.728,8.568,5.829,10.606,11.023,2.52,4.744,4.8,9.861,6.881,14.671.493,1.161,1,2.323,1.49,3.484,8.218,19.175,15.975,37.287,34.942,42.513,4.4,1.326,9.346.581,14.573-.219.866-.131,1.753-.263,2.63-.383a43.669,43.669,0,0,1,9.16-.515l.131.033c13.5,4.733,17.619,17.126,21.6,29.1,3.254,9.8,6.333,19.043,14.244,23.7a72.33,72.33,0,0,0,11.428,6.355c8.667,4.142,17.63,8.426,21.037,20.336" transform="translate(71.813 80.516)" fill="#f44aaf"/>
      <path id="Caminho_398" data-name="Caminho 398" d="M167.575,363.941h-.3c-2.126-.077-4.35-1.15-6.629-3.21l-.055-.066c-4.3-5.478-10.541-6.147-16.589-6.793-5.215-.559-10.157-1.085-13.641-4.569-6.07-6.081-9.8-14.178-13.389-22.013-3.945-8.6-8.031-17.487-15.219-23.777-2.849-1.194-5.632-2.115-8.327-3-.734-.241-1.468-.482-2.191-.734-33.769-11.253-54.292-43.05-65.567-67.758-1.8-3.462-3.5-7.078-5.029-10.694-13.094-29.9-15.416-65.336-6.552-99.774a152.519,152.519,0,0,1,299.1,29.113c.285,3.758.427,7.593.427,11.384-1.446,10.048-2.093,20.522-2.728,30.647-1.644,26.625-3.353,54.171-19.449,76.4a4.217,4.217,0,0,1-2.608,2.422c-2.159.6-4.613-.975-7.21-2.63a18.34,18.34,0,0,0-5.478-2.75,9.943,9.943,0,0,0-5.621,2.334c-1.326,1.161-2.663,2.411-4.087,3.747-.581.548-1.161,1.1-1.753,1.643a153.29,153.29,0,0,1-33.539,23.6c-3.441,1.786-7.045,3.5-10.716,5.073a55.311,55.311,0,0,0-12.885,5.928,46.188,46.188,0,0,0-10.365,10.157,95.267,95.267,0,0,0-7.955,12.7c-2.246,3.977-4.328,8.24-6.344,12.359a178.663,178.663,0,0,1-8.93,16.753c-2.1,2.356-4.229,3.506-6.377,3.506m-6.18-3.966c2.071,1.863,4.065,2.849,5.928,2.915,1.917.088,3.868-.953,5.8-3.09a183.454,183.454,0,0,0,8.82-16.589c2.016-4.12,4.109-8.393,6.355-12.4a98.712,98.712,0,0,1,8.042-12.831,47.22,47.22,0,0,1,10.628-10.387,55.763,55.763,0,0,1,13.1-6.037c3.594-1.545,7.177-3.243,10.6-5.018a151.8,151.8,0,0,0,33.3-23.448c.592-.537,1.172-1.085,1.764-1.633,1.359-1.282,2.772-2.608,4.142-3.8a10.846,10.846,0,0,1,6.377-2.553,18.362,18.362,0,0,1,5.95,2.9c2.389,1.523,4.657,2.98,6.355,2.509a3.391,3.391,0,0,0,1.994-1.961c15.964-22.056,17.663-49.438,19.3-75.921.635-10.146,1.282-20.643,2.728-30.658-.011-3.693-.153-7.495-.427-11.231C306.323,72.157,239.99,10.6,161.132,10.6A151.709,151.709,0,0,0,15.109,121.814c-8.809,34.208-6.5,69.4,6.5,99.095,1.534,3.6,3.21,7.188,5.018,10.65,11.2,24.533,31.545,56.089,64.942,67.221.734.252,1.457.493,2.191.734,2.739.9,5.577,1.83,8.481,3.068l.142.088c7.407,6.443,11.549,15.449,15.548,24.171,3.561,7.758,7.243,15.778,13.181,21.717,3.221,3.221,7.977,3.725,13.006,4.273,6.245.668,12.71,1.359,17.279,7.144" transform="translate(87.58 94.974)" fill="#f44aaf"/>
      <path id="Caminho_399" data-name="Caminho 399" d="M151.338,313.337a18.172,18.172,0,0,1-4.613-.668c-21.322-1.6-35.271-16.622-48.759-31.151-3.167-3.4-6.443-6.925-9.741-10.212-2.169-1.238-4.3-2.411-6.4-3.561-1.3-.723-2.6-1.435-3.879-2.158C56.177,255.9,42.5,236.123,29.3,217.014l-.373-.537c-1.994-3.4-3.846-6.892-5.522-10.409a135.043,135.043,0,0,1-13.17-58.5C10.234,72.25,71.505,10.99,146.813,10.99A136.752,136.752,0,0,1,282.931,136.382c.307,3.758.46,7.451.46,11.275-.931,35.15-5.8,70.486-34.931,91.041-2.389,2.663-4.92,5.259-7.506,7.725a136.692,136.692,0,0,1-35.643,24.555c-3.178,1.523-6.64,3.046-10.88,4.766-6,1.753-11.286,5.424-16.676,11.549-1.216,1.49-2.454,2.991-3.692,4.492-1.841,2.224-3.692,4.449-5.522,6.706-3.539,4.383-6.388,8.108-8.93,11.724l-.11.11a13.866,13.866,0,0,1-6.4,2.893,13.121,13.121,0,0,1-1.764.121M146.813,12.042c-74.727,0-135.527,60.8-135.527,135.527a134.081,134.081,0,0,0,13.072,58.039c1.665,3.5,3.5,6.958,5.457,10.31l.351.493c13.126,19,26.7,38.634,48.255,48.233,1.315.745,2.619,1.457,3.923,2.17,2.115,1.172,4.273,2.356,6.465,3.616l.11.088c3.342,3.309,6.629,6.859,9.828,10.289,13.357,14.387,27.173,29.266,48.112,30.811l.088.011a14.923,14.923,0,0,0,6.015.537,12.51,12.51,0,0,0,5.829-2.63c2.553-3.616,5.391-7.341,8.941-11.713q2.745-3.386,5.522-6.717,1.857-2.235,3.7-4.492c5.457-6.213,11.056-10.091,17.137-11.866,4.164-1.687,7.6-3.2,10.76-4.722a136.052,136.052,0,0,0,35.38-24.357c2.586-2.465,5.1-5.062,7.484-7.714l.088-.077c28.795-20.281,33.616-55.355,34.536-90.231,0-3.791-.153-7.451-.449-11.176C276.2,66.7,216.872,12.042,146.813,12.042" transform="translate(101.9 109.431)" fill="#f44aaf"/>
      <path id="Caminho_400" data-name="Caminho 400" d="M135.6,271.147a21.94,21.94,0,0,1-3.32-.263l-.131-.033C107.932,260.475,88.56,249.759,71.193,237.1c-1.8-1.052-3.616-2.191-5.358-3.353a122.707,122.707,0,0,1-10.2-7.56c-2.958-2.443-5.851-5.073-8.568-7.79s-5.347-5.61-7.79-8.579a120.62,120.62,0,1,1,213.256-87.678c.329,3.627.493,7.319.493,10.968-.877,24.412-6.925,46.03-17.5,62.542-1.83,3-3.835,5.982-5.928,8.831A122.107,122.107,0,0,1,189.824,239.2c-3.419,1.863-6.969,3.572-10.541,5.084-5.281,2.038-11.4,4.6-17.334,9.456a96.865,96.865,0,0,0-7.845,6.958,81.758,81.758,0,0,1-9.182,7.911,19.211,19.211,0,0,1-6.311,2.3,18.228,18.228,0,0,1-3.013.241m-3.1-1.293a19.269,19.269,0,0,0,5.939.011,17.858,17.858,0,0,0,5.928-2.159,80.1,80.1,0,0,0,9.018-7.779,96.821,96.821,0,0,1,7.911-7.012c6.048-4.953,12.25-7.56,17.6-9.609a115.519,115.519,0,0,0,10.431-5.04,121.047,121.047,0,0,0,39.423-34.4c2.082-2.827,4.065-5.774,5.884-8.766,10.475-16.359,16.479-37.791,17.345-62.006,0-3.594-.164-7.253-.493-10.847C245.957,61.266,193.637,13.494,132.355,13.494A119.557,119.557,0,0,0,40.086,209.153c2.421,2.947,5.029,5.807,7.725,8.5s5.555,5.292,8.5,7.725a120.429,120.429,0,0,0,10.1,7.495c1.731,1.15,3.539,2.279,5.358,3.353C89.1,248.85,108.381,259.522,132.5,269.854" transform="translate(116.357 123.889)" fill="#f44aaf"/>
      <path id="Caminho_401" data-name="Caminho 401" d="M121.809,234.106a16.43,16.43,0,0,1-4.043-.515l-.088-.033c-5.665-2.6-11.428-5.084-17.005-7.484C89.848,221.418,78.65,216.6,68,210.812c-3.035-1.7-5.939-3.484-8.634-5.3a104.7,104.7,0,1,1,104.562,7.243c-3.528,1.742-7.177,3.287-10.7,4.777a82.71,82.71,0,0,0-11.691,7.319,80.859,80.859,0,0,1-11.264,7.056,19.228,19.228,0,0,1-6.18,2.038,15.951,15.951,0,0,1-2.279.164m-3.736-1.523a15.348,15.348,0,0,0,5.862.318,18.618,18.618,0,0,0,5.862-1.939,78.2,78.2,0,0,0,11.121-6.98,86.057,86.057,0,0,1,11.866-7.418c3.539-1.49,7.177-3.035,10.683-4.755a103.736,103.736,0,1,0-103.511-7.177c2.674,1.808,5.555,3.572,8.557,5.248,10.6,5.763,21.772,10.573,32.575,15.23,5.566,2.4,11.329,4.876,16.983,7.473" transform="translate(130.815 138.337)" fill="#f44aaf"/>
      <path id="Caminho_402" data-name="Caminho 402" d="M106.946,198.612a23.014,23.014,0,0,1-3.583-.285l-.033-.011c-1.994-.416-4-.953-6.125-1.611-1.819-.57-3.736-1.227-5.873-2.038a76.844,76.844,0,0,1-10.891-4.2A74.948,74.948,0,0,0,68.959,186.1c-2.717-1.161-5.336-2.422-7.834-3.78s-4.964-2.86-7.33-4.459a88.861,88.861,0,1,1,99.292,0,94.814,94.814,0,0,1-15.077,8.316c-5.763,2.706-11.866,5.884-16.545,8.349-5.183,2.739-9.96,4.087-14.518,4.087m-3.408-1.326c5.38.866,11.088-.34,17.433-3.692,4.69-2.465,10.8-5.654,16.589-8.382a93.375,93.375,0,0,0,14.934-8.229,87.8,87.8,0,1,0-98.109,0c2.334,1.578,4.777,3.057,7.243,4.4s5.051,2.6,7.67,3.714a75.961,75.961,0,0,1,11.582,4.4,76.958,76.958,0,0,0,10.782,4.164c2.159.811,4.054,1.468,5.851,2.027,2.1.646,4.065,1.172,6.026,1.589" transform="translate(145.272 152.804)" fill="#f44aaf"/>
      <path id="Caminho_403" data-name="Caminho 403" d="M91.567,165.132c-.888,0-1.764-.033-2.63-.11l-.044-.011c-9.105-1.687-18.835-3.835-28.28-8.064a72.972,72.972,0,1,1,69.128-6.728,85.5,85.5,0,0,1-12.37,6.9c-3.944,1.83-8.645,3.955-13.63,5.752a35.819,35.819,0,0,1-12.173,2.257m-2.509-1.161a33.652,33.652,0,0,0,14.321-2.082c4.953-1.786,9.62-3.9,13.543-5.73a82.52,82.52,0,0,0,12.228-6.815,71.613,71.613,0,1,0-68.12,6.64c9.346,4.175,18.988,6.311,28.028,7.988" transform="translate(159.72 167.252)" fill="#f44aaf"/>
      <path id="Caminho_404" data-name="Caminho 404" d="M75.851,133c-.449,0-.9,0-1.337-.022a60.2,60.2,0,0,1-15.143-2.608,60.736,60.736,0,0,1-13.609-5.851,57.031,57.031,0,1,1,85.8-49.241,56.636,56.636,0,0,1-16.72,40.311,57.314,57.314,0,0,1-11.549,8.93,70.753,70.753,0,0,1-13.6,6.158A43.98,43.98,0,0,1,75.851,133m-1.3-1.074a42.363,42.363,0,0,0,14.825-2.257,68.89,68.89,0,0,0,13.389-6.059,55.985,55.985,0,1,0-56.461,0,58.805,58.805,0,0,0,13.368,5.741,59.146,59.146,0,0,0,14.88,2.575" transform="translate(174.187 181.709)" fill="#f44aaf"/>
      <path id="Caminho_405" data-name="Caminho 405" d="M60.329,102.021h-.252A41.339,41.339,0,0,1,31.009,89.891a41.12,41.12,0,1,1,70.2-29.069A40.829,40.829,0,0,1,89.146,89.891a41.491,41.491,0,0,1-13.072,8.853,39.57,39.57,0,0,1-15.745,3.276m-.252-81.268a40.108,40.108,0,0,0,0,80.216A38.735,38.735,0,0,0,75.658,97.78,40.412,40.412,0,0,0,88.4,89.146,40.056,40.056,0,0,0,60.077,20.753" transform="translate(188.635 196.167)" fill="#f44aaf"/>
      <path id="Caminho_406" data-name="Caminho 406" d="M45.62,71.588A25.217,25.217,0,1,1,70.843,46.376,25.247,25.247,0,0,1,45.62,71.588m0-49.383A24.166,24.166,0,1,0,69.78,46.376,24.2,24.2,0,0,0,45.62,22.2" transform="translate(203.092 210.624)" fill="#f44aaf"/>
      <path id="Caminho_407" data-name="Caminho 407" d="M247.66,596.116l-.219-.153a25.947,25.947,0,0,1-3.912-3.375l-.1-.131c-6.6-13.2-8.514-28.817-10.059-41.352l-.208-1.655c-.362-2.991-.734-5.972-1.14-8.93.614-23.262-17.98-40.716-55.278-51.958a28.3,28.3,0,0,0-7.878,3.046c-5.424,3.024-10.311,7.648-15.022,12.118-4.109,3.9-8.349,7.922-12.951,10.88-1.293,1.227-4.722,1.205-5.972-.044-8.722-8.733-14.365-18.956-18.725-27.809-1.512-3.079-2.969-6.224-4.383-9.259-.877-1.885-1.742-3.747-2.619-5.588-1.512-1.14-2.728-3.451-3.89-5.7-1.26-2.411-2.564-4.909-3.9-5.117a1.937,1.937,0,0,0-1.589.745c-9.763,9.237-11.866,21.629-14.091,34.756-1.994,11.823-4.065,24.051-12.239,33.758l-.515.614-.362-.723c-3.6-7.21-5.216-14.737-6.925-22.7-.778-3.649-1.589-7.418-2.6-11.132-1.841-9.171-3.528-18.342-5.161-27.206-6.98-37.835-13.576-73.576-30.219-107.159-2.947-5.665-5.709-11.527-8.2-17.422A245.7,245.7,0,0,1,0,248.21C0,111.5,111.224.276,247.934.276S495.869,111.5,495.869,248.21a245.607,245.607,0,0,1-49.317,148.248c-3.8,5.084-7.9,10.157-12.184,15.066-13.357,14.77-18.057,33.1-23.032,52.517-4.01,15.657-8.163,31.852-17.257,46.216l-.066.088a2.491,2.491,0,0,1-2.652.394,6.106,6.106,0,0,1-2.312-1.446c-4.92-4.5-7.79-11.351-10.563-17.969-4.4-10.5-8.568-20.424-20.347-19.821-4.416,1.381-8.864,3.177-13.17,4.931q-2.4.97-4.81,1.928c-6.081,2.443-12.327,4.668-18.572,6.618-3.693,1.151-7.363,2.2-11.746,3.43a41.43,41.43,0,0,0-12.261,5.807c-.7.636-1.479,1.282-2.257,1.928a27.761,27.761,0,0,0-5.643,5.687c-3.7,4.416-6.629,9.774-9.226,16.918-1.216,3.342-2.246,6.76-3,9.357-1.961,12.349-7.188,23.557-12.239,34.4-3.955,8.481-8.042,17.246-10.431,26.373l-.055.131c-2.268,3.945-4.492,6.235-6.826,7.013Zm-3.32-4.207a25.243,25.243,0,0,0,3.473,3.035c1.961-.767,3.955-2.915,5.972-6.388,2.421-9.2,6.508-17.991,10.464-26.483,5.029-10.782,10.223-21.936,12.173-34.2.778-2.685,1.808-6.114,3.035-9.489,2.641-7.264,5.621-12.721,9.39-17.191a28.542,28.542,0,0,1,5.8-5.862c.767-.636,1.545-1.282,2.279-1.95a42.737,42.737,0,0,1,12.622-5.982c4.383-1.227,8.053-2.279,11.724-3.43,6.224-1.939,12.447-4.153,18.5-6.585q2.416-.953,4.8-1.928c4.35-1.764,8.842-3.594,13.324-4.985l.132-.022c12.568-.668,16.885,9.587,21.443,20.468,2.728,6.519,5.555,13.247,10.311,17.608a5.223,5.223,0,0,0,1.917,1.216,1.586,1.586,0,0,0,1.534-.11c8.985-14.2,13.1-30.3,17.093-45.855,5.007-19.547,9.73-38,23.262-52.955,4.262-4.887,8.338-9.927,12.129-14.989A244.611,244.611,0,0,0,494.817,248.21c0-136.129-110.753-246.883-246.882-246.883S1.052,112.081,1.052,248.21a244.857,244.857,0,0,0,19.427,96.005c2.487,5.862,5.237,11.7,8.174,17.356C45.362,395.286,51.969,431.1,58.959,469.015c1.644,8.853,3.331,18.013,5.15,27.151,1.019,3.7,1.83,7.495,2.619,11.154,1.633,7.626,3.178,14.847,6.476,21.717,7.56-9.39,9.554-21.191,11.483-32.619,2.159-12.721,4.383-25.869,14.4-35.336a2.933,2.933,0,0,1,2.476-1.03c1.874.285,3.232,2.9,4.679,5.665,1.14,2.191,2.323,4.459,3.682,5.413l.11.077.066.132c.887,1.874,1.775,3.791,2.673,5.709,1.413,3.035,2.871,6.169,4.383,9.237,4.317,8.776,9.894,18.912,18.517,27.535.844.844,3.682.844,4.525,0l.088-.066c4.536-2.915,8.755-6.914,12.842-10.782,4.766-4.525,9.7-9.193,15.23-12.283a29.027,29.027,0,0,1,8.316-3.178l.131-.033.121.044c37.889,11.4,56.79,29.2,56.154,52.944.405,2.871.767,5.862,1.14,8.853l.2,1.654c1.95,15.822,3.912,28.883,9.927,40.935" transform="translate(0 2.752)" fill="#fff"/>
      <path id="Caminho_408" data-name="Caminho 408" d="M234,565.923a4.252,4.252,0,0,1-1.578-.307l-.164-.066-.1-.153c-2.378-3.966-3.6-8.01-4.9-12.283-.46-1.512-.931-3.068-1.479-4.7-1.611-6.99-2.7-14.178-3.616-20.928-.2-1.435-.394-2.882-.592-4.328q-.411-3.074-.833-6.125c-.219-10.047-1.644-23.963-11.582-29.485-14.244-7.659-25.639-15.11-34.953-26.483-2.673-2.674-6.388-4.021-11.286-4.065a24.7,24.7,0,0,0-7.7,2.465c-5.752,2.882-10.76,7.626-16.052,12.655a112.363,112.363,0,0,1-11.691,10.124c-2.663,1.337-6.432-.263-7.933-1.008l-.153-.121c-8.086-9.237-13.663-19.712-17.63-27.809-1.841-3.769-3.616-7.637-5.336-11.362l-1.545-3.353c-.515-.855-1.118-2.071-1.764-3.353-2.06-4.1-4.876-9.719-7.582-9.785-1.1-.022-2.191.931-3.243,2.849-6.684,10.31-9.105,21.487-11.658,33.32-1.841,8.448-3.725,17.181-7.3,25.672l-.121.164c-1.227,1.238-3.528,3.539-4.964,2.115l-.121-.186c-10.376-27.513-15.208-56.439-19.887-84.4-4.81-28.762-9.785-58.51-20.807-86.264-2.312-6.213-4.1-11.4-5.632-16.326A231.513,231.513,0,0,1,1.452,233.763c0-127.945,104.08-232.036,232.025-232.036S465.5,105.818,465.5,233.763a229.989,229.989,0,0,1-44.825,136.951c-.9,1.227-1.819,2.443-2.739,3.682-.877,1.172-1.753,2.345-2.641,3.55-2.213,3.024-3.912,5.457-5.489,7.878-5.928,7.44-8.338,16.205-10.661,24.686-.405,1.468-.811,2.936-1.227,4.394-.373,1.435-.734,2.871-1.1,4.306-.493,1.983-.986,3.955-1.5,5.895-3.3,12.579-7.495,25.322-19.076,30.833-4.394,1.95-8.535-2.1-13.335-6.793-6.235-6.092-13.313-13.006-22.834-8.777-2.235.964-4.47,1.961-6.728,2.958-3.145,1.4-6.388,2.849-9.642,4.208-5.544,2.345-11.253,4.5-16.972,6.41-3.824,1.282-7.747,2.465-11.647,3.55a48.322,48.322,0,0,0-13.762,8.042c-8.086,7.21-12.151,16.633-14.781,24.029-1.14,3.221-2.159,6.508-3,9.3-4.416,15.833-10.639,30.844-16.655,45.362C244.5,550,242.023,555.974,239.7,561.9l-.055.12c-1.863,2.6-3.758,3.9-5.643,3.9m-1.03-1.227c1.874.614,3.758-.449,5.774-3.232,2.323-5.928,4.788-11.877,7.177-17.641,5.993-14.485,12.206-29.463,16.611-45.252.844-2.816,1.863-6.114,3.024-9.368,2.673-7.505,6.793-17.082,15.077-24.467a49.879,49.879,0,0,1,14.124-8.251c3.934-1.085,7.834-2.268,11.647-3.539,5.687-1.907,11.373-4.054,16.9-6.388,3.232-1.359,6.487-2.794,9.62-4.2,2.257-1,4.492-1.994,6.728-2.958,10.179-4.525,17.838,2.969,24,8.985,4.525,4.427,8.437,8.24,12.151,6.585,11.165-5.314,15.263-17.794,18.506-30.132.515-1.939,1.008-3.9,1.5-5.884.362-1.435.723-2.882,1.1-4.328.427-1.468.822-2.936,1.227-4.4,2.356-8.579,4.788-17.454,10.826-25.015,1.556-2.411,3.265-4.854,5.5-7.889.888-1.205,1.764-2.378,2.641-3.55.92-1.238,1.83-2.454,2.739-3.682A229.019,229.019,0,0,0,464.45,233.763C464.45,106.4,360.841,2.79,233.477,2.79S2.5,106.4,2.5,233.763A230.043,230.043,0,0,0,12.814,302.08c1.523,4.92,3.309,10.08,5.61,16.26C29.48,346.192,34.465,376,39.286,404.812c4.657,27.875,9.478,56.7,19.788,84.073.723.471,2.6-1.37,3.331-2.093,3.506-8.371,5.38-17.027,7.188-25.387,2.586-11.932,5.029-23.2,11.79-33.649,1.271-2.279,2.619-3.364,4.175-3.353,3.342.066,6.2,5.774,8.5,10.365.636,1.26,1.238,2.465,1.753,3.331l1.567,3.4c1.72,3.736,3.5,7.582,5.325,11.351,3.923,8.01,9.445,18.364,17.411,27.491,1.161.57,4.646,2.093,6.815,1.008a112.716,112.716,0,0,0,11.516-9.993c5.347-5.073,10.409-9.872,16.293-12.831a25.8,25.8,0,0,1,8.119-2.575c5.194.044,9.259,1.534,12.129,4.4,9.237,11.286,20.533,18.66,34.679,26.275,10.42,5.785,11.91,20.073,12.129,30.318.274,1.983.559,4.021.833,6.07.186,1.446.384,2.893.581,4.328.92,6.717,1.994,13.882,3.583,20.785.537,1.589,1.019,3.156,1.479,4.679,1.315,4.328,2.443,8.086,4.7,11.888" transform="translate(14.458 17.2)" fill="#fff"/>
      <path id="Caminho_409" data-name="Caminho 409" d="M219.662,534.461l-.307-.022c-1.348-.121-2.684-1.041-3.955-2.75l-.077-.142c-2.816-8.612-4.591-17.509-6.388-28.214-.285-1.72-.57-3.441-.844-5.161-.241-1.468-.493-2.936-.734-4.394-.405-1.994-.734-4.12-1.063-6.191-1.172-7.626-2.4-15.515-8-18.714-19.153-10.639-29.617-23.24-43.39-41.264-.942-1.852-4.843-2.926-7.385-2.1l-.121.022a22.736,22.736,0,0,0-7.725,2.191c-5.555,2.63-10.628,7.21-15.526,11.636-3.8,3.43-7.736,6.991-11.79,9.478a8.573,8.573,0,0,1-11.187-1.129l-.077-.1c-6.98-11.023-12.3-22.593-16.731-32.575q-1.2-2.662-2.367-5.347c-1.589-3.594-3.232-7.319-4.876-10.924-1.3-4.755-5.062-10.365-6.114-10.968-12.447,6.048-14.584,19.273-16.83,33.276-1.644,10.135-3.331,20.621-9.149,28.674l-.679.942-.263-1.129c-3.484-14.88-7.243-29.682-11.22-45.351C21.286,358.579,9.321,311.4,4.861,264.5c-5.051-53.108.57-98.163,17.191-137.74,2.663-5.6,5.588-11.121,8.722-16.457A217.927,217.927,0,0,1,108.35,32.73,215.632,215.632,0,0,1,217.339,3.179c119.168,0,216.126,96.958,216.126,216.126A215.568,215.568,0,0,1,403.334,329.28c-1.578,2.663-3.243,5.336-4.953,7.955-1.808,2.772-3.682,5.511-5.281,7.834-3.177,5.654-5.961,12.842-8.908,20.446-6.465,16.666-13.784,35.555-27.535,41.22-6.859,2.827-14.606,2.235-23.678-1.8a13.449,13.449,0,0,0-8.47,2.586c-2.005.964-3.934,1.907-5.873,2.86-3.572,1.753-7.264,3.561-10.968,5.248-5.709,2.641-11.6,5.051-17.509,7.177-3.78,1.348-7.659,2.619-11.527,3.769a39.562,39.562,0,0,0-10.376,5.566,48.675,48.675,0,0,0-8.13,7.747c-6.98,8.36-10.387,18.813-13.028,27.962q-.822,2.86-1.611,5.741l-1.249,4.47c-2.246,10.508-6.892,20.566-11.384,30.3-3.638,7.867-7.4,16.008-9.894,24.4l-.044.142-.11.1a4.645,4.645,0,0,1-3.145,1.457M216.3,531.13c1.063,1.413,2.126,2.17,3.145,2.257a3.394,3.394,0,0,0,2.542-1.063c2.531-8.415,6.278-16.545,9.916-24.4,4.459-9.686,9.083-19.69,11.308-30.121.427-1.512.844-3,1.26-4.481.537-1.928,1.063-3.846,1.622-5.752,2.673-9.259,6.114-19.843,13.236-28.357a50.423,50.423,0,0,1,8.305-7.922,40.738,40.738,0,0,1,10.672-5.709c3.879-1.161,7.736-2.422,11.494-3.769,5.884-2.115,11.746-4.514,17.422-7.133,3.7-1.687,7.4-3.5,10.957-5.237,1.939-.953,3.868-1.907,5.8-2.827a14.47,14.47,0,0,1,9.138-2.728l.2.044c8.842,3.955,16.348,4.547,22.944,1.83,13.335-5.489,20.566-24.16,26.954-40.628,2.958-7.637,5.763-14.858,9.007-20.621,1.611-2.356,3.5-5.1,5.292-7.856,1.7-2.6,3.353-5.259,4.931-7.911a214.626,214.626,0,0,0,29.978-109.438c0-118.587-96.476-215.063-215.074-215.063-75.954,0-147.1,40.848-185.655,106.6-3.112,5.3-6.026,10.8-8.667,16.348C-13.974,215.3,10.351,311.2,33.887,403.941c3.879,15.274,7.538,29.715,10.957,44.222,5.139-7.725,6.739-17.652,8.283-27.272,2.312-14.343,4.5-27.9,17.608-34.142l.23-.055c1.589,0,5.862,7,7.144,11.713,1.622,3.517,3.265,7.253,4.854,10.858q1.167,2.663,2.356,5.336c4.416,9.938,9.708,21.443,16.644,32.389a7.554,7.554,0,0,0,9.828.953,83.957,83.957,0,0,0,11.658-9.379c4.953-4.481,10.08-9.105,15.778-11.8a23.659,23.659,0,0,1,8.021-2.279c2.783-.877,7.341.153,8.546,2.575,13.641,17.827,24.04,30.351,43.017,40.891,6.048,3.462,7.308,11.6,8.535,19.47.318,2.06.646,4.175,1.052,6.158.241,1.479.482,2.947.723,4.427.285,1.709.57,3.43.855,5.15,1.786,10.628,3.55,19.449,6.322,27.973" transform="translate(30.595 31.658)" fill="#fff"/>
      <path id="Caminho_410" data-name="Caminho 410" d="M207.938,501.431c-2.213,0-4.273-2.334-6.289-7.1l-.011-.044c-.877-2.772-1.644-5.665-2.367-8.864-.6-2.684-1.172-5.621-1.742-8.963-.559-3-.909-6.3-1.238-9.489-1.019-9.62-1.983-18.7-7.988-20.95-18.988-6.333-27.261-20.106-36-34.679-2.915-4.843-5.917-9.85-9.346-14.562a11.434,11.434,0,0,0-7.341-2.553c-11.932-.186-21.914,8.744-31.107,17.926A13.357,13.357,0,0,1,93.964,415.8a7.952,7.952,0,0,1-6.1-3.747c-8.075-13.017-13.926-26.943-19.591-40.42q-1.512-3.616-3.057-7.221a109.936,109.936,0,0,0-7.078-14.365c-1.293-1.392-2.663-2.038-4.01-1.841-2.126.3-4.361,2.673-6.454,6.87-2.509,5.424-4.043,11.319-5.533,17.027-2.257,8.623-4.58,17.553-10.332,25.234l-.668.876-.263-1.063C19.884,354.235,8.247,303.559,5.19,253.2c-3.386-55.848,4.1-102.82,22.9-143.635,3.057-5.654,6.432-11.231,10.059-16.578A200.221,200.221,0,0,1,204.114,4.631c110.4,0,200.217,89.825,200.217,200.217a198.011,198.011,0,0,1-18.9,84.895c-1.205,2.564-2.487,5.139-3.791,7.648-3.813,7.188-6.958,15.362-10.289,24.007-10.069,26.1-20.446,53.021-49.69,53.021a55.73,55.73,0,0,1-9.4-.844,26.249,26.249,0,0,0-5.183,2.925c-4.887,2.947-9.916,5.687-14.989,8.185-5.106,2.509-10.387,4.821-15.679,6.881-3.7,1.435-7.527,2.794-11.373,4.032-.592.241-1.183.482-1.764.712a39.7,39.7,0,0,0-10.146,5.347c-3.221,1.841-5.873,4.624-8.426,8.766-5.895,8.535-8.853,19.284-11.384,29.551-.3,1.205-.592,2.41-.877,3.616-.57,2.356-1.14,4.711-1.742,7.034-3.1,15.153-10.278,28.839-17.213,42.086-1.457,2.772-2.9,5.544-4.317,8.327l-.11.208-.219.055a3.244,3.244,0,0,1-.9.131m-5.3-7.484c1.337,3.167,3.408,6.782,5.7,6.388,1.381-2.717,2.794-5.413,4.218-8.119,6.9-13.17,14.036-26.8,17.126-41.823.592-2.356,1.161-4.7,1.731-7.045.3-1.216.592-2.421.887-3.627,2.542-10.365,5.533-21.213,11.516-29.869,2.63-4.284,5.413-7.177,8.733-9.072a40.55,40.55,0,0,1,10.332-5.446c.581-.23,1.172-.471,1.8-.723,3.868-1.249,7.67-2.608,11.351-4.032,5.27-2.049,10.519-4.35,15.6-6.848,5.04-2.476,10.048-5.2,14.869-8.108a27.173,27.173,0,0,1,5.489-3.079l.142-.055.153.022c35.84,6.224,47.148-23.119,58.083-51.5,3.342-8.678,6.5-16.874,10.332-24.116,1.3-2.5,2.575-5.051,3.78-7.6a197.1,197.1,0,0,0,18.8-84.445c0-109.822-89.343-199.154-199.165-199.154A199.16,199.16,0,0,0,39.014,93.58c-3.594,5.325-6.958,10.858-9.982,16.457-39.7,86.2-22.308,188.241,2.575,285.769,5.161-7.308,7.374-15.778,9.511-23.974,1.5-5.741,3.046-11.68,5.6-17.213,2.3-4.591,4.733-7.1,7.254-7.462,1.72-.241,3.4.515,5.007,2.257A108.589,108.589,0,0,1,66.188,364c1.03,2.41,2.038,4.821,3.057,7.232,5.643,13.433,11.483,27.327,19.525,40.278a6.965,6.965,0,0,0,5.325,3.243,12.243,12.243,0,0,0,9.664-3.342c9.357-9.346,19.514-18.463,31.874-18.232A12.4,12.4,0,0,1,143.664,396l.088.1c3.484,4.766,6.519,9.817,9.445,14.7,8.645,14.4,16.819,28.006,35.457,34.219,6.64,2.487,7.681,12.327,8.678,21.837.34,3.167.69,6.443,1.227,9.412.57,3.331,1.14,6.245,1.742,8.919.712,3.156,1.479,6.026,2.334,8.755" transform="translate(43.82 46.115)" fill="#fff"/>
      <path id="Caminho_411" data-name="Caminho 411" d="M196.268,464.425l-.394-.153c-2.312-.92-4.361-4.218-6.256-10.1l-.011-.022q-.986-3.649-1.939-7.352c-1.37-11.735-7.21-31.677-31.118-34.2h-.011c-2.3,0-5.621-3.243-6.771-6.684-5.128-14.387-10.475-28.313-19.219-40.431a12.934,12.934,0,0,0-8.393-2.619c-6.311.252-12.02,3.682-17.553,6.991-6.454,3.857-13.137,7.856-20.818,6.892-9.346-1.863-12.294-11.636-14.9-20.259-.449-1.49-.888-2.947-1.359-4.35-3.2-8.163-6.629-16.183-10.19-23.81-1.841-3.934-3.747-7.834-5.676-11.614-.537-.8-1.15-1.885-1.8-3.035-2.027-3.6-4.547-8.086-7.823-8.82a5.271,5.271,0,0,0-4.284,1.15c-3.386,3.4-5.6,7.56-7.736,11.571A54.573,54.573,0,0,1,24.145,327l-.581.712-.318-.866c-12.184-33.375-18.232-71.965-17.487-111.6.778-41.012,8.864-79.942,23.4-112.594,2.827-5.226,5.939-10.343,9.259-15.252A184.3,184.3,0,0,1,191.206,6.084c101.626,0,184.307,82.67,184.307,184.3a184.386,184.386,0,0,1-5.818,46.008c-.745,2.925-1.589,5.862-2.487,8.744-5.106,10.979-7.955,23.284-10.716,35.183-4.8,20.687-9.752,42.075-26.625,56.253-4.865,3.78-10.891,3.55-17.279,3.32-6.289-.23-12.8-.482-18.408,3.276-2.454,1.665-4.964,3.276-7.473,4.8-2.531,1.545-5.128,3.035-7.725,4.449-5.226,2.838-10.639,5.457-16.107,7.768-3.528,1.5-7.3,2.958-11.2,4.35a40.177,40.177,0,0,0-9.719,5.676,52.879,52.879,0,0,0-7.867,7.7c-7.922,10.069-11.384,22.922-14.726,35.358-.427,1.611-.866,3.232-1.3,4.832-.942,3.43-1.72,6.048-2.509,8.492-4.306,12.995-10.179,24.555-19.043,37.484Zm-5.643-10.574c1.654,5.139,3.419,8.24,5.259,9.259,8.678-12.7,14.441-24.083,18.671-36.848.778-2.422,1.545-5.029,2.487-8.437l1.315-4.832c3.364-12.535,6.848-25.5,14.923-35.742a53.615,53.615,0,0,1,8.031-7.878,40.866,40.866,0,0,1,9.993-5.829c3.9-1.392,7.648-2.849,11.165-4.339,5.424-2.3,10.815-4.9,16.008-7.725,2.575-1.4,5.161-2.882,7.681-4.416,2.487-1.523,5-3.123,7.429-4.766,5.895-3.955,12.579-3.7,19.043-3.462,6.18.23,12.031.438,16.578-3.09,16.578-13.937,21.278-34.208,26.253-55.661,2.772-11.965,5.643-24.324,10.771-35.336.866-2.794,1.7-5.72,2.443-8.623a183.307,183.307,0,0,0,5.785-45.745c0-101.045-82.21-183.244-183.255-183.244A183.245,183.245,0,0,0,39.3,88c-3.309,4.887-6.4,9.971-9.193,15.121-28.6,64.252-31.063,153.54-6.191,222.492a58.206,58.206,0,0,0,5.172-8.525c2.18-4.087,4.416-8.316,7.988-11.877a6.39,6.39,0,0,1,5.194-1.381c3.736.833,6.377,5.544,8.514,9.335.636,1.139,1.238,2.2,1.786,3.013,1.961,3.846,3.879,7.769,5.72,11.7,3.572,7.648,7.012,15.69,10.234,23.908.471,1.424.92,2.9,1.37,4.394,2.641,8.744,5.38,17.794,14.058,19.525,7.3.92,13.521-2.816,20.106-6.76,5.654-3.375,11.483-6.87,18.057-7.133a14.116,14.116,0,0,1,9.127,2.86l.121.12c8.853,12.261,14.233,26.286,19.416,40.782.964,2.915,3.955,5.972,5.829,5.972,24.7,2.6,30.712,23.075,32.093,35.051.625,2.4,1.26,4.843,1.928,7.254" transform="translate(56.729 60.583)" fill="#fff"/>
      <path id="Caminho_412" data-name="Caminho 412" d="M182.81,418.619l-.3-.175c-2.071-1.194-4.175-4.12-6.432-8.941l-.022-.077c-3.276-11.483-11.636-15.482-20.49-19.712a72.867,72.867,0,0,1-11.549-6.421c-8.218-4.832-11.351-14.266-14.671-24.248-3.9-11.724-7.922-23.842-20.884-28.422a42.582,42.582,0,0,0-8.864.5l-2.619.394c-5.347.8-10.4,1.567-15.022.186-19.438-5.369-27.655-24.555-35.61-43.116-.5-1.161-1-2.323-1.5-3.484-2.071-4.788-4.328-9.883-6.859-14.639-1.939-4.953-6.169-7.823-10.245-10.6-3.747-2.553-7.286-4.953-8.349-8.667-18.3-41.4-16-97.21,6.169-149.245A168.831,168.831,0,0,1,176.827,7.535c92.849,0,168.4,75.537,168.4,168.4,0,3.342-.1,6.728-.3,10.059-.2,3.287-.493,6.629-.877,9.927-2.9,11.516-4.536,23.853-6.1,35.774-3.55,26.91-7.221,54.73-25.574,74.562-3.539,4.032-8.546,2.235-13.85.318-6.421-2.3-13.061-4.69-18.452,2.29l-.1.088c-2.476,1.928-5.029,3.8-7.6,5.577s-5.237,3.517-7.911,5.15a167.75,167.75,0,0,1-16.709,8.974c-3.451,1.611-6.859,3.068-10.968,4.81A45.968,45.968,0,0,0,222.89,341.4a63.736,63.736,0,0,0-9.2,12.425c-5.336,7.692-8.163,17.553-10.9,27.086-1.435,4.963-2.9,10.1-4.722,14.9a67.755,67.755,0,0,1-3.649,8.119c-2.958,5.073-6.289,10.8-11.329,14.474Zm-5.752-9.522c2.016,4.3,3.934,7.067,5.7,8.251,4.69-3.55,7.9-9.051,10.738-13.926a64.655,64.655,0,0,0,3.583-7.977c1.8-4.755,3.265-9.872,4.69-14.825,2.761-9.62,5.621-19.558,11.034-27.349a64.03,64.03,0,0,1,9.379-12.644,46.763,46.763,0,0,1,14.233-8.141c4.054-1.731,7.462-3.188,10.891-4.788a168.024,168.024,0,0,0,16.611-8.919c2.652-1.622,5.3-3.342,7.867-5.117,2.531-1.753,5.051-3.6,7.495-5.5,5.851-7.516,13.159-4.9,19.6-2.575,5.172,1.863,9.642,3.462,12.71-.044C329.732,285.952,333.38,258.3,336.9,231.55c1.578-11.954,3.21-24.314,6.114-35.829.373-3.2.668-6.519.866-9.8.2-3.309.3-6.673.3-9.993,0-92.269-75.077-167.346-167.346-167.346A166.808,166.808,0,0,0,35.57,86.283a171.11,171.11,0,0,0-9.05,16.118C4.485,154.15,2.184,209.658,20.383,250.846c.986,3.419,4.372,5.72,7.955,8.152,4.021,2.739,8.568,5.829,10.617,11.023,2.52,4.744,4.788,9.861,6.87,14.671.493,1.161,1,2.323,1.49,3.484,8.218,19.175,15.975,37.287,34.942,42.513,4.4,1.326,9.346.581,14.573-.208q1.315-.214,2.63-.394a42.959,42.959,0,0,1,9.16-.5l.131.022c13.5,4.733,17.619,17.126,21.6,29.1,3.254,9.8,6.333,19.043,14.255,23.7a71.365,71.365,0,0,0,11.417,6.355c8.667,4.142,17.63,8.426,21.037,20.336" transform="translate(71.107 75.03)" fill="#fff"/>
      <path id="Caminho_413" data-name="Caminho 413" d="M167.505,363.39h-.3c-2.126-.077-4.35-1.161-6.629-3.21l-.055-.066c-4.3-5.478-10.541-6.147-16.589-6.793-5.216-.559-10.157-1.085-13.641-4.569-6.07-6.081-9.8-14.178-13.389-22.023-3.945-8.59-8.031-17.476-15.23-23.766-2.838-1.194-5.621-2.115-8.316-3-.734-.241-1.468-.482-2.191-.734C57.4,287.973,36.876,256.165,25.6,231.468c-1.8-3.462-3.5-7.078-5.029-10.694C7.478,190.873,5.156,155.438,14.02,121a152.519,152.519,0,0,1,299.1,29.113c.285,3.758.427,7.593.427,11.384-1.446,10.048-2.093,20.522-2.728,30.647-1.644,26.625-3.353,54.171-19.449,76.4a4.217,4.217,0,0,1-2.608,2.422c-2.158.6-4.613-.975-7.21-2.63a18.342,18.342,0,0,0-5.478-2.75,9.944,9.944,0,0,0-5.621,2.334c-1.326,1.161-2.663,2.411-4.087,3.747-.581.548-1.161,1.1-1.753,1.644a153.29,153.29,0,0,1-33.539,23.6c-3.44,1.786-7.045,3.5-10.716,5.073a55.311,55.311,0,0,0-12.885,5.928,46.186,46.186,0,0,0-10.365,10.157,95.265,95.265,0,0,0-7.955,12.7c-2.246,3.977-4.328,8.24-6.344,12.359a178.674,178.674,0,0,1-8.93,16.753c-2.1,2.345-4.229,3.506-6.377,3.506m-6.18-3.966c2.071,1.863,4.065,2.849,5.928,2.915,1.917.088,3.868-.953,5.785-3.09a180.808,180.808,0,0,0,8.831-16.589c2.016-4.12,4.109-8.393,6.355-12.4a97.975,97.975,0,0,1,8.042-12.831A47.221,47.221,0,0,1,206.9,307.039,55.768,55.768,0,0,1,220,301c3.594-1.545,7.177-3.243,10.6-5.018a151.8,151.8,0,0,0,33.3-23.448c.592-.537,1.172-1.085,1.764-1.633,1.359-1.282,2.772-2.608,4.142-3.8a10.846,10.846,0,0,1,6.377-2.553,18.362,18.362,0,0,1,5.95,2.9c2.389,1.523,4.657,2.98,6.355,2.5a3.337,3.337,0,0,0,1.994-1.95c15.964-22.056,17.663-49.438,19.3-75.921.636-10.146,1.282-20.643,2.728-30.658-.011-3.693-.153-7.495-.427-11.231C306.253,71.606,239.92,10.039,161.051,10.039A151.726,151.726,0,0,0,15.039,121.263c-8.809,34.208-6.5,69.4,6.5,99.095,1.534,3.6,3.21,7.177,5.018,10.65C37.753,255.541,58.1,287.1,91.5,298.229c.723.241,1.457.493,2.191.734,2.739.9,5.577,1.83,8.481,3.068l.142.088c7.407,6.443,11.549,15.449,15.548,24.171,3.561,7.758,7.243,15.778,13.181,21.717,3.221,3.221,7.977,3.725,13.006,4.273,6.245.668,12.71,1.359,17.279,7.144" transform="translate(86.883 89.488)" fill="#fff"/>
      <path id="Caminho_414" data-name="Caminho 414" d="M151.267,312.775a17.762,17.762,0,0,1-4.613-.668c-21.322-1.589-35.27-16.611-48.759-31.14-3.167-3.408-6.443-6.925-9.741-10.212-2.169-1.238-4.3-2.411-6.388-3.561-1.315-.723-2.608-1.435-3.89-2.159-21.772-9.7-35.435-29.463-48.649-48.572l-.373-.537c-1.994-3.4-3.846-6.892-5.522-10.409a135.078,135.078,0,0,1-13.17-58.5c0-75.318,61.271-136.579,136.579-136.579A136.773,136.773,0,0,1,282.871,135.831c.307,3.758.449,7.451.449,11.275-.92,35.15-5.8,70.486-34.931,91.041-2.389,2.663-4.909,5.259-7.495,7.725a137.2,137.2,0,0,1-35.654,24.555c-3.178,1.523-6.64,3.046-10.869,4.766-6.015,1.753-11.3,5.424-16.687,11.549-1.216,1.49-2.454,2.991-3.692,4.492-1.841,2.224-3.692,4.449-5.511,6.706-3.55,4.383-6.4,8.108-8.941,11.724l-.11.11a13.865,13.865,0,0,1-6.4,2.893,13.144,13.144,0,0,1-1.764.11M146.742,11.491c-74.727,0-135.527,60.8-135.527,135.527a134.081,134.081,0,0,0,13.072,58.039c1.665,3.5,3.5,6.958,5.457,10.31l.351.493c13.126,19,26.7,38.634,48.255,48.233,1.326.745,2.619,1.446,3.923,2.169,2.126,1.172,4.273,2.356,6.465,3.616l.11.088c3.342,3.309,6.64,6.859,9.828,10.289,13.357,14.387,27.173,29.266,48.112,30.811l.1.011a14.856,14.856,0,0,0,6,.537,12.5,12.5,0,0,0,5.84-2.63c2.542-3.616,5.38-7.341,8.93-11.713,1.83-2.257,3.682-4.492,5.522-6.717,1.238-1.5,2.476-2.991,3.7-4.492,5.457-6.213,11.067-10.091,17.137-11.866,4.164-1.687,7.6-3.2,10.76-4.722a135.872,135.872,0,0,0,35.38-24.357c2.586-2.465,5.095-5.062,7.484-7.714l.088-.077c28.795-20.281,33.616-55.355,34.536-90.231,0-3.791-.153-7.451-.449-11.176C276.133,66.144,216.8,11.491,146.742,11.491" transform="translate(101.193 103.945)" fill="#fff"/>
      <path id="Caminho_415" data-name="Caminho 415" d="M135.538,270.6a21.938,21.938,0,0,1-3.32-.263l-.131-.033c-24.215-10.376-43.587-21.092-60.954-33.747-1.8-1.052-3.616-2.191-5.358-3.353a122.7,122.7,0,0,1-10.2-7.56c-2.958-2.443-5.851-5.073-8.568-7.79s-5.347-5.61-7.79-8.579a120.62,120.62,0,1,1,213.256-87.678c.329,3.627.493,7.319.493,10.968-.877,24.412-6.925,46.03-17.5,62.542-1.83,3-3.835,5.983-5.928,8.831a122.107,122.107,0,0,1-39.774,34.712c-3.419,1.863-6.969,3.572-10.541,5.084-5.281,2.038-11.4,4.6-17.334,9.456a96.959,96.959,0,0,0-7.845,6.947,80.763,80.763,0,0,1-9.182,7.922,19.211,19.211,0,0,1-6.311,2.3,18.231,18.231,0,0,1-3.013.241m-3.1-1.293a18.936,18.936,0,0,0,5.939.011,17.858,17.858,0,0,0,5.928-2.158,80.1,80.1,0,0,0,9.018-7.779,96.835,96.835,0,0,1,7.911-7.012c6.048-4.953,12.25-7.56,17.6-9.609a115.5,115.5,0,0,0,10.431-5.04,121.046,121.046,0,0,0,39.423-34.4c2.082-2.827,4.065-5.774,5.884-8.777,10.475-16.348,16.479-37.78,17.345-61.995,0-3.594-.164-7.254-.493-10.847C245.9,60.715,193.577,12.943,132.3,12.943A119.557,119.557,0,0,0,40.026,208.6c2.432,2.947,5.029,5.807,7.725,8.5s5.555,5.292,8.5,7.725a120.407,120.407,0,0,0,10.1,7.495c1.731,1.15,3.539,2.279,5.358,3.353,17.323,12.622,36.607,23.295,60.724,33.627" transform="translate(115.65 118.403)" fill="#fff"/>
      <path id="Caminho_416" data-name="Caminho 416" d="M121.739,233.555a16.452,16.452,0,0,1-4.054-.515l-.088-.033c-5.665-2.6-11.417-5.084-17.005-7.484-10.815-4.657-22.024-9.478-32.674-15.263-3.024-1.7-5.939-3.484-8.623-5.3a104.674,104.674,0,1,1,104.562,7.254c-3.539,1.731-7.188,3.276-10.716,4.766a82.713,82.713,0,0,0-11.691,7.319,80.214,80.214,0,0,1-11.264,7.056,19.257,19.257,0,0,1-6.169,2.038,15.94,15.94,0,0,1-2.279.164M118,232.032a15.324,15.324,0,0,0,5.862.318,18.8,18.8,0,0,0,5.862-1.939,78.713,78.713,0,0,0,11.11-6.98,85.53,85.53,0,0,1,11.877-7.418c3.528-1.49,7.177-3.035,10.683-4.755a103.729,103.729,0,1,0-103.521-7.177c2.674,1.808,5.555,3.572,8.568,5.248,10.584,5.763,21.761,10.574,32.564,15.23,5.566,2.4,11.33,4.876,16.994,7.473" transform="translate(130.118 132.85)" fill="#fff"/>
      <path id="Caminho_417" data-name="Caminho 417" d="M106.886,198.061a23.049,23.049,0,0,1-3.594-.285l-.033-.011c-1.994-.416-4-.953-6.125-1.611-1.819-.57-3.736-1.227-5.873-2.038a78.187,78.187,0,0,1-10.891-4.2,74.954,74.954,0,0,0-11.483-4.372c-2.717-1.161-5.336-2.421-7.834-3.791s-4.964-2.849-7.33-4.449a88.861,88.861,0,1,1,99.292,0,94.813,94.813,0,0,1-15.077,8.316c-5.763,2.706-11.866,5.884-16.545,8.349-5.183,2.739-9.96,4.087-14.507,4.087m-3.419-1.326c5.391.866,11.088-.34,17.433-3.692,4.69-2.465,10.8-5.654,16.6-8.382a93.741,93.741,0,0,0,14.923-8.229,87.8,87.8,0,1,0-98.109,0c2.334,1.578,4.777,3.057,7.243,4.4s5.062,2.6,7.67,3.714a75.959,75.959,0,0,1,11.582,4.4A76.956,76.956,0,0,0,91.59,193.12c2.159.811,4.054,1.468,5.851,2.027,2.093.646,4.065,1.172,6.026,1.589" transform="translate(144.565 147.318)" fill="#fff"/>
      <path id="Caminho_418" data-name="Caminho 418" d="M91.5,164.582c-.888,0-1.764-.033-2.63-.11l-.044-.011c-9.105-1.687-18.835-3.835-28.28-8.064a72.972,72.972,0,1,1,69.128-6.728,84.918,84.918,0,0,1-12.37,6.9c-3.945,1.83-8.645,3.955-13.63,5.752A35.819,35.819,0,0,1,91.5,164.582m-2.509-1.161a33.7,33.7,0,0,0,14.332-2.082c4.942-1.786,9.62-3.9,13.543-5.731a82.391,82.391,0,0,0,12.217-6.815,71.614,71.614,0,1,0-68.12,6.64c9.346,4.175,19,6.311,28.028,7.988" transform="translate(159.023 161.765)" fill="#fff"/>
      <path id="Caminho_419" data-name="Caminho 419" d="M75.78,132.45c-.449,0-.9-.011-1.337-.022A60.2,60.2,0,0,1,59.3,129.821a60.735,60.735,0,0,1-13.609-5.851,57.031,57.031,0,1,1,85.8-49.241,57.264,57.264,0,0,1-28.269,49.241,70.45,70.45,0,0,1-13.6,6.158,44.032,44.032,0,0,1-13.85,2.323m-1.3-1.074A42.363,42.363,0,0,0,89.3,129.119a68.889,68.889,0,0,0,13.389-6.059,55.985,55.985,0,1,0-56.461,0A59.3,59.3,0,0,0,59.6,128.8a59.142,59.142,0,0,0,14.88,2.575" transform="translate(173.48 176.223)" fill="#fff"/>
      <path id="Caminho_420" data-name="Caminho 420" d="M60.258,101.47h-.252A41.338,41.338,0,0,1,30.938,89.34a41.12,41.12,0,1,1,70.2-29.069A40.811,40.811,0,0,1,89.075,89.34,41.367,41.367,0,0,1,76,98.194a39.57,39.57,0,0,1-15.745,3.276M60.006,20.2a40.108,40.108,0,0,0,0,80.216,38.735,38.735,0,0,0,15.581-3.188A40.412,40.412,0,0,0,88.33,88.6,40.056,40.056,0,0,0,60.006,20.2" transform="translate(187.928 190.68)" fill="#fff"/>
      <path id="Caminho_421" data-name="Caminho 421" d="M45.549,71.037A25.217,25.217,0,1,1,70.772,45.825,25.247,25.247,0,0,1,45.549,71.037m0-49.383A24.166,24.166,0,1,0,69.72,45.825,24.188,24.188,0,0,0,45.549,21.654" transform="translate(202.385 205.138)" fill="#fff"/>
    </g>
  </g>
</svg>
